<?xml version="1.0" encoding="utf-8"?>
<!-- Generator: Adobe Illustrator 24.0.0, SVG Export Plug-In . SVG Version: 6.00 Build 0)  -->
<svg version="1.1" id="Layer_1" xmlns="http://www.w3.org/2000/svg" xmlns:xlink="http://www.w3.org/1999/xlink" x="0px" y="0px"
	 viewBox="0 0 120 120" style="enable-background:new 0 0 120 120;" xml:space="preserve">
<style type="text/css">
	.st0{fill:url(#SVGID_1_);}
	.st1{fill:url(#SVGID_2_);}
	.st2{fill:url(#SVGID_3_);}
	.st3{fill:url(#SVGID_4_);}
	.st4{fill:url(#SVGID_5_);}
	.st5{fill:url(#SVGID_6_);}
	.st6{fill:url(#SVGID_7_);}
	.st7{fill:url(#SVGID_8_);}
	.st8{fill:url(#SVGID_9_);}
	.st9{fill:url(#SVGID_10_);}
	.st10{fill:url(#SVGID_11_);}
	.st11{fill:url(#SVGID_12_);}
	.st12{fill:url(#SVGID_13_);}
	.st13{fill:url(#SVGID_14_);}
	.st14{fill:url(#SVGID_15_);}
	.st15{fill:url(#SVGID_16_);}
	.st16{fill:url(#SVGID_17_);}
	.st17{fill:url(#SVGID_18_);}
	.st18{fill:url(#SVGID_19_);}
	.st19{fill:url(#SVGID_20_);}
	.st20{fill:url(#SVGID_21_);}
	.st21{fill:url(#SVGID_22_);}
	.st22{fill:url(#SVGID_23_);}
	.st23{fill:url(#SVGID_24_);}
	.st24{fill:url(#SVGID_25_);}
	.st25{fill:url(#SVGID_26_);}
	.st26{fill:url(#SVGID_27_);}
	.st27{fill:url(#SVGID_28_);}
	.st28{fill:url(#SVGID_29_);}
	.st29{fill:url(#SVGID_30_);}
	.st30{fill:url(#SVGID_31_);}
	.st31{fill:url(#SVGID_32_);}
	.st32{fill:url(#SVGID_33_);}
	.st33{fill:url(#SVGID_34_);}
	.st34{fill:url(#SVGID_35_);}
	.st35{fill:url(#SVGID_36_);}
	.st36{fill:url(#SVGID_37_);}
	.st37{fill:url(#SVGID_38_);}
	.st38{fill:url(#SVGID_39_);}
	.st39{fill:url(#SVGID_40_);}
	.st40{fill:url(#SVGID_41_);}
	.st41{fill:url(#SVGID_42_);}
	.st42{fill:url(#SVGID_43_);}
	.st43{fill:url(#SVGID_44_);}
	.st44{fill:url(#SVGID_45_);}
	.st45{fill:url(#SVGID_46_);}
	.st46{fill:url(#SVGID_47_);}
	.st47{fill:url(#SVGID_48_);}
	.st48{fill:url(#SVGID_49_);}
	.st49{fill:url(#SVGID_50_);}
	.st50{fill:url(#SVGID_51_);}
	.st51{fill:url(#SVGID_52_);}
	.st52{fill:url(#SVGID_53_);}
	.st53{fill:#606060;}
</style>
<g>
	<path class="st53" d="M21.33,87.05c0-4.49-0.02-8.99,0-13.48c0.02-6.17,4.48-10.63,10.63-10.65c3.83-0.01,7.66,0,11.48-0.01
		c0.59,0,1.4,0.2,1.49-0.7c0.1-0.9,0.53-1.99-0.52-2.63c-3.06-1.86-5.65-4.23-7.88-7.02c-0.39-0.49-0.92-0.51-1.47-0.51
		c-2.21,0-4.41,0.01-6.62-0.01c-1.91-0.02-2.61-0.73-2.63-2.67c-0.01-1.58-0.03-3.16,0-4.74c0.01-0.72-0.21-1.24-0.75-1.74
		c-5.61-5.27-5.42-13.02,0.46-17.99c0.7-0.59,0.9-1.38,1.17-2.15C29.4,15.04,34.24,9.04,41.23,4.8C53.7-2.78,70.05-1.25,80.95,8.45
		c4.52,4.02,7.76,8.86,9.7,14.58c0.3,0.89,0.78,1.58,1.5,2.22c3.79,3.42,5.12,7.66,3.51,12.53c-1.56,4.7-5.04,7.31-9.92,7.98
		c-0.82,0.11-1.25,0.41-1.57,1.14c-2.55,5.75-6.55,10.17-12.1,13.16c-1.07,0.58-0.99,1.44-0.85,2.35c0.11,0.7,0.77,0.51,1.23,0.51
		c3.99,0.01,7.99,0.01,11.98,0.01c6.59,0.01,10.97,4.35,10.97,10.93c0.01,8.2-0.2,16.4,0.07,24.59c0.22,6.79-2.94,11.4-8.35,14.84
		c-5.3,3.36-11.23,4.95-17.36,5.9c-5.03,0.78-10.1,0.96-15.18,0.74c-7.47-0.33-14.84-1.31-21.73-4.46
		c-4.7-2.15-8.65-5.15-10.64-10.16c-0.62-1.56-0.87-3.2-0.87-4.88C21.33,95.95,21.33,91.5,21.33,87.05z M52.33,22.1
		c-0.5,0.53-0.58,1.16-0.8,1.72c-2.86,7.03-8,11.18-15.54,12.22c-1.03,0.14-1.09,0.64-1.02,1.42c0.3,3.31,1.22,6.43,2.74,9.39
		c0.42,0.82,0.95,1.11,1.86,1.1c3.74-0.04,7.48-0.02,11.23-0.02c0.37,0,0.75,0,1.12,0c1.58,0.02,2.58,0.82,2.58,2.07
		c0,1.22-1.02,2.03-2.63,2.04c-2.87,0.02-5.74,0-8.61,0.01c-0.43,0-0.91-0.17-1.32,0.2c0.3,0.64,0.86,1.02,1.35,1.45
		c8.06,7,20.51,7.54,29.14,1.22c5.85-4.29,9.2-10.03,9.88-17.3c0.12-1.24-0.34-1.61-1.52-1.56c-2.21,0.09-4.4-0.17-6.58-0.51
		c-7.26-1.14-13.76-3.79-18.82-9.35C54.24,24.96,53.36,23.5,52.33,22.1z M49.15,66.17c0.01,0,0.01,0,0.02,0c0,1-0.03,2,0.01,2.99
		c0.17,4.49,3.71,8.21,8.09,8.51c4.83,0.33,8.83-2.73,9.59-7.39c0.39-2.35,0.1-4.73,0.18-7.1c0.02-0.8-0.35-0.87-1.03-0.68
		c-2.21,0.61-4.47,0.94-6.76,1.01c-3.02,0.09-5.97-0.36-8.83-1.31c-1.07-0.35-1.32-0.05-1.26,0.97
		C49.2,64.17,49.15,65.17,49.15,66.17z M58.77,4.07c-1.06,0.09-1.97,0.16-2.88,0.24c-8.87,0.83-15.92,4.9-21.23,12.01
		c-1.2,1.6-2.21,3.32-3.02,5.15c-0.13,0.3-0.48,0.68,0.07,0.94c0.78,0.38,2.36-0.1,2.82-0.88c0.98-1.65,2.08-3.21,3.37-4.63
		C50.53,3,72.84,5.15,82.55,21.23c0.13,0.21,0.24,0.44,0.38,0.65c0.7,1.04,1.85,0.73,2.6,0.47c0.81-0.29-0.02-1.07-0.25-1.51
		C79.66,10.06,70.69,4.62,58.77,4.07z M25.2,34.25c0,3.03,2.14,6.01,4.97,6.96c0.87,0.29,1.24,0.2,1.04-0.86
		c-0.79-4.24-0.51-8.44,0.68-12.58c0.27-0.94,0.09-1.22-0.91-1C27.61,27.51,25.21,30.59,25.2,34.25z M92.06,34.21
		c0.02-3.73-2.4-6.76-5.88-7.46c-0.88-0.18-1.04,0.06-0.81,0.86c1.21,4.16,1.56,8.38,0.78,12.67c-0.22,1.21-0.01,1.31,1.16,0.87
		C90.18,40.07,92.05,37.35,92.06,34.21z M31.72,47.97c0.55-0.16,1.29,0.28,1.61-0.31c0.22-0.4-0.21-0.95-0.46-1.35
		c-0.6-0.93-1.67-0.63-2.48-0.6c-0.73,0.03-0.44,0.95-0.39,1.46C30.09,48.41,31.13,47.74,31.72,47.97z"/>
</g>
</svg>
