<?xml version="1.0" encoding="utf-8"?>
<!-- Generator: Adobe Illustrator 24.0.0, SVG Export Plug-In . SVG Version: 6.00 Build 0)  -->
<svg version="1.1" id="Layer_1" xmlns="http://www.w3.org/2000/svg" xmlns:xlink="http://www.w3.org/1999/xlink" x="0px" y="0px"
	 viewBox="0 0 120 120" style="enable-background:new 0 0 120 120;" xml:space="preserve">
<style type="text/css">
	.st0{fill:url(#SVGID_1_);}
	.st1{fill:url(#SVGID_2_);}
	.st2{fill:url(#SVGID_3_);}
	.st3{fill:url(#SVGID_4_);}
	.st4{fill:url(#SVGID_5_);}
	.st5{fill:url(#SVGID_6_);}
	.st6{fill:url(#SVGID_7_);}
	.st7{fill:url(#SVGID_8_);}
	.st8{fill:url(#SVGID_9_);}
	.st9{fill:url(#SVGID_10_);}
	.st10{fill:url(#SVGID_11_);}
	.st11{fill:url(#SVGID_12_);}
	.st12{fill:url(#SVGID_13_);}
	.st13{fill:url(#SVGID_14_);}
	.st14{fill:url(#SVGID_15_);}
	.st15{fill:url(#SVGID_16_);}
	.st16{fill:url(#SVGID_17_);}
	.st17{fill:url(#SVGID_18_);}
	.st18{fill:url(#SVGID_19_);}
	.st19{fill:url(#SVGID_20_);}
	.st20{fill:url(#SVGID_21_);}
	.st21{fill:url(#SVGID_22_);}
	.st22{fill:url(#SVGID_23_);}
	.st23{fill:url(#SVGID_24_);}
	.st24{fill:url(#SVGID_25_);}
	.st25{fill:url(#SVGID_26_);}
	.st26{fill:url(#SVGID_27_);}
	.st27{fill:url(#SVGID_28_);}
	.st28{fill:url(#SVGID_29_);}
	.st29{fill:url(#SVGID_30_);}
	.st30{fill:url(#SVGID_31_);}
	.st31{fill:url(#SVGID_32_);}
	.st32{fill:url(#SVGID_33_);}
	.st33{fill:url(#SVGID_34_);}
	.st34{fill:url(#SVGID_35_);}
	.st35{fill:url(#SVGID_36_);}
	.st36{fill:url(#SVGID_37_);}
	.st37{fill:url(#SVGID_38_);}
	.st38{fill:url(#SVGID_39_);}
	.st39{fill:url(#SVGID_40_);}
	.st40{fill:url(#SVGID_41_);}
	.st41{fill:url(#SVGID_42_);}
	.st42{fill:url(#SVGID_43_);}
	.st43{fill:url(#SVGID_44_);}
	.st44{fill:url(#SVGID_45_);}
	.st45{fill:url(#SVGID_46_);}
	.st46{fill:url(#SVGID_47_);}
	.st47{fill:url(#SVGID_48_);}
	.st48{fill:url(#SVGID_49_);}
	.st49{fill:url(#SVGID_50_);}
	.st50{fill:url(#SVGID_51_);}
	.st51{fill:url(#SVGID_52_);}
	.st52{fill:url(#SVGID_53_);}
	.st53{fill:#606060;}
</style>
<g>
	<linearGradient id="SVGID_1_" gradientUnits="userSpaceOnUse" x1="3.8574" y1="43.5944" x2="100.3791" y2="42.0292">
		<stop  offset="0" style="stop-color:#1FC9DB"/>
		<stop  offset="1" style="stop-color:#1FE8CB"/>
	</linearGradient>
	<circle class="st0" cx="60" cy="42.68" r="24.16"/>
	<g>
		<linearGradient id="SVGID_2_" gradientUnits="userSpaceOnUse" x1="4.1403" y1="61.0407" x2="100.662" y2="59.4754">
			<stop  offset="0" style="stop-color:#1FC9DB"/>
			<stop  offset="1" style="stop-color:#1FE8CB"/>
		</linearGradient>
		<path class="st1" d="M60,0.27c-33.01,0-59.87,26.86-59.87,59.87S26.99,120,60,120s59.87-26.86,59.87-59.87S93.01,0.27,60,0.27z
			 M60,3.29c31.35,0,56.85,25.5,56.85,56.85c0,22.88-13.59,42.64-33.12,51.65c-0.16,0.07-0.31,0.14-0.47,0.21
			c-0.23,0.1-0.47,0.21-0.7,0.31c-0.23,0.1-0.47,0.2-0.7,0.3c-0.19,0.08-0.37,0.15-0.56,0.23c-0.3,0.12-0.6,0.24-0.89,0.35
			c-0.14,0.05-0.28,0.11-0.42,0.16c-0.37,0.14-0.74,0.27-1.11,0.41c-0.08,0.03-0.16,0.06-0.23,0.08
			c-5.84,2.03-12.11,3.13-18.64,3.13s-12.8-1.1-18.64-3.13c-0.08-0.03-0.16-0.06-0.23-0.08c-0.37-0.13-0.74-0.27-1.11-0.41
			c-0.14-0.05-0.28-0.11-0.42-0.16c-0.3-0.12-0.6-0.23-0.89-0.35c-0.19-0.08-0.37-0.15-0.56-0.23c-0.24-0.1-0.47-0.2-0.7-0.3
			c-0.23-0.1-0.47-0.2-0.7-0.31c-0.16-0.07-0.31-0.14-0.47-0.21C16.74,102.78,3.15,83.02,3.15,60.13C3.15,28.79,28.65,3.29,60,3.29z
			"/>
		<linearGradient id="SVGID_3_" gradientUnits="userSpaceOnUse" x1="4.6776" y1="94.1771" x2="101.1994" y2="92.6119">
			<stop  offset="0" style="stop-color:#1FC9DB"/>
			<stop  offset="1" style="stop-color:#1FE8CB"/>
		</linearGradient>
		<path class="st2" d="M60,113.42c17.63,0,33.29-8.61,43-21.85l-0.65-5.72c0,0-2.17-10.32-11.94-12.22H72.49L60,103.22L47.51,73.63
			H29.6c-9.77,1.9-11.94,12.22-11.94,12.22L17,91.56C26.71,104.8,42.37,113.42,60,113.42z"/>
	</g>
</g>
</svg>
