<?xml version="1.0" encoding="utf-8"?>
<!-- Generator: Adobe Illustrator 24.0.0, SVG Export Plug-In . SVG Version: 6.00 Build 0)  -->
<svg version="1.1" id="Layer_1" xmlns="http://www.w3.org/2000/svg" xmlns:xlink="http://www.w3.org/1999/xlink" x="0px" y="0px"
	 viewBox="0 0 125 125" style="enable-background:new 0 0 125 125;" xml:space="preserve">
<style type="text/css">
	.st0{fill:#606161;}
	.st1{fill:#FFFFFF;}
</style>
<g>
	<g>
		<path class="st0" d="M62.37,124.98c-17.3,0-34.6,0-51.9,0c-5.04,0-8.92-2.98-10.23-7.82C0.05,116.45,0,115.73,0,115
			C0,79.99-0.01,44.97,0.01,9.96c0-5.3,4.54-9.91,9.79-9.91c23.64-0.03,47.29-0.01,70.93-0.01c0.3,0,0.72-0.13,0.87,0.15
			c0.2,0.39-0.26,0.59-0.48,0.81c-2.96,2.97-5.95,5.92-8.88,8.92c-0.65,0.66-1.33,0.86-2.22,0.85c-19.21-0.02-38.41-0.01-57.62-0.01
			c-1.68,0-1.68,0-1.68,1.71c0,33.39,0,66.77,0,100.16c0,1.63,0,1.63,1.66,1.63c33.39,0,66.77,0,100.16,0c1.68,0,1.68,0,1.68-1.71
			c0-19.1,0.01-38.21-0.02-57.31c0-1.12,0.28-1.95,1.1-2.74c2.88-2.8,5.69-5.68,8.54-8.52c0.26-0.26,0.51-0.74,0.88-0.62
			c0.43,0.14,0.22,0.67,0.22,1.02c0.01,23.47,0.01,46.94,0,70.41c0,5.73-4.5,10.18-10.26,10.19
			C97.25,124.99,79.81,124.98,62.37,124.98z"/>
		<path class="st0" d="M115.94,33.95c-0.12,0.43-0.47,0.68-0.76,0.97c-6.79,6.79-13.58,13.58-20.37,20.37
			C81.65,68.46,68.48,81.62,55.32,94.79c-1.17,1.17-1.17,1.17-2.31,0.02c-7.65-7.65-15.3-15.3-22.94-22.94
			c-1.03-1.03-1.03-1.04,0.02-2.09C50.07,49.8,70.05,29.82,90.03,9.84c1.03-1.03,1.03-1.03,2.03-0.03
			c7.72,7.72,15.44,15.44,23.16,23.17C115.5,33.26,115.87,33.5,115.94,33.95z"/>
		<path class="st0" d="M34.61,103.55c-3.5,0-7,0-10.5,0c-2.13,0-2.67-0.53-2.67-2.61c0-7,0.01-14-0.02-21
			c0-1.05,0.28-1.88,1.07-2.57c0.57-0.5,1.13-1.03,1.62-1.62c0.63-0.76,1.1-0.76,1.82-0.03c4.13,4.2,8.31,8.35,12.48,12.51
			c3.63,3.63,7.24,7.27,10.9,10.86c0.7,0.68,0.66,1.1-0.02,1.74c-3.4,3.25-1.93,2.66-6.57,2.71
			C40.01,103.57,37.31,103.55,34.61,103.55z"/>
		<path class="st0" d="M102.38,0.29c1.88,0.08,3.49,0.61,4.79,1.9c5.2,5.19,10.42,10.35,15.57,15.59c2.61,2.65,2.61,6.64,0.13,9.41
			c-0.6,0.67-1.3,1.25-1.88,1.94c-0.6,0.71-1.05,0.64-1.68,0c-2.84-2.89-5.72-5.74-8.58-8.61c-4.9-4.9-9.8-9.79-14.69-14.69
			c-1.01-1.01-1.01-1.01,0.01-2.02C96.66,3.2,97.27,2.59,97.9,2C99.18,0.8,100.76,0.36,102.38,0.29z"/>
	</g>
</g>
</svg>
