<?xml version="1.0" encoding="utf-8"?>
<!-- Generator: Adobe Illustrator 24.0.0, SVG Export Plug-In . SVG Version: 6.00 Build 0)  -->
<svg version="1.1" id="Layer_1" xmlns="http://www.w3.org/2000/svg" xmlns:xlink="http://www.w3.org/1999/xlink" x="0px" y="0px"
	 viewBox="0 0 120 120" style="enable-background:new 0 0 120 120;" xml:space="preserve">
<style type="text/css">
	.st0{fill:url(#SVGID_1_);}
	.st1{fill:url(#SVGID_2_);}
	.st2{fill:url(#SVGID_3_);}
	.st3{fill:url(#SVGID_4_);}
	.st4{fill:url(#SVGID_5_);}
	.st5{fill:url(#SVGID_6_);}
	.st6{fill:url(#SVGID_7_);}
	.st7{fill:url(#SVGID_8_);}
	.st8{fill:url(#SVGID_9_);}
	.st9{fill:url(#SVGID_10_);}
	.st10{fill:url(#SVGID_11_);}
	.st11{fill:url(#SVGID_12_);}
	.st12{fill:url(#SVGID_13_);}
	.st13{fill:url(#SVGID_14_);}
	.st14{fill:url(#SVGID_15_);}
	.st15{fill:url(#SVGID_16_);}
	.st16{fill:url(#SVGID_17_);}
	.st17{fill:url(#SVGID_18_);}
	.st18{fill:url(#SVGID_19_);}
	.st19{fill:url(#SVGID_20_);}
	.st20{fill:url(#SVGID_21_);}
	.st21{fill:url(#SVGID_22_);}
	.st22{fill:url(#SVGID_23_);}
	.st23{fill:url(#SVGID_24_);}
	.st24{fill:url(#SVGID_25_);}
	.st25{fill:url(#SVGID_26_);}
	.st26{fill:url(#SVGID_27_);}
	.st27{fill:url(#SVGID_28_);}
	.st28{fill:url(#SVGID_29_);}
	.st29{fill:url(#SVGID_30_);}
	.st30{fill:url(#SVGID_31_);}
	.st31{fill:url(#SVGID_32_);}
	.st32{fill:url(#SVGID_33_);}
	.st33{fill:url(#SVGID_34_);}
	.st34{fill:url(#SVGID_35_);}
	.st35{fill:url(#SVGID_36_);}
	.st36{fill:url(#SVGID_37_);}
	.st37{fill:url(#SVGID_38_);}
	.st38{fill:url(#SVGID_39_);}
	.st39{fill:url(#SVGID_40_);}
	.st40{fill:url(#SVGID_41_);}
	.st41{fill:url(#SVGID_42_);}
	.st42{fill:url(#SVGID_43_);}
	.st43{fill:url(#SVGID_44_);}
	.st44{fill:url(#SVGID_45_);}
	.st45{fill:url(#SVGID_46_);}
	.st46{fill:url(#SVGID_47_);}
	.st47{fill:url(#SVGID_48_);}
	.st48{fill:url(#SVGID_49_);}
	.st49{fill:url(#SVGID_50_);}
	.st50{fill:url(#SVGID_51_);}
	.st51{fill:url(#SVGID_52_);}
	.st52{fill:url(#SVGID_53_);}
	.st53{fill:#606060;}
</style>
<g>
	<path class="st53" d="M59.68,28.71c11.44,0.1,21.72,3.32,31.44,8.48c10.62,5.65,19.95,13.02,28.26,21.71
		c0.83,0.87,0.84,1.36,0.02,2.2C107.31,73.53,93.67,83.55,76.91,88.7c-14.28,4.39-28.23,3.03-41.83-2.88
		C21.91,80.09,10.73,71.6,0.76,61.37c-1.03-1.05-1.02-1.59,0.01-2.66c9.08-9.47,19.35-17.34,31.17-23.07
		C40.79,31.36,50.1,28.79,59.68,28.71z M83.39,60.16c0.08-13.06-10.18-23.45-23.22-23.53c-13.03-0.07-23.51,10.1-23.62,22.93
		C36.42,72.8,46.66,83.38,59.68,83.47C72.85,83.56,83.3,73.28,83.39,60.16z"/>
	<path class="st53" d="M60.03,59.97c4.78-2.03,9.06-3.8,13.29-5.67c1.53-0.68,2.26-0.68,2.85,1.23c2.93,9.61-4.49,20.25-14.5,21.14
		c-13.57,1.2-22.73-12.84-16.45-24.71c3.53-6.66,12.53-10.45,19.63-8.01c1.34,0.46,1.59,0.97,1,2.29
		C63.92,50.6,62.11,55.03,60.03,59.97z"/>
</g>
</svg>
