<?xml version="1.0" encoding="utf-8"?>
<!-- Generator: Adobe Illustrator 24.0.0, SVG Export Plug-In . SVG Version: 6.00 Build 0)  -->
<svg version="1.1" id="Layer_1" xmlns="http://www.w3.org/2000/svg" xmlns:xlink="http://www.w3.org/1999/xlink" x="0px" y="0px"
	 viewBox="0 0 235.95 235.95" style="enable-background:new 0 0 235.95 235.95;" xml:space="preserve">
<style type="text/css">
	.st0{fill:url(#SVGID_1_);}
	.st1{fill:url(#SVGID_2_);}
	.st2{fill:url(#SVGID_3_);}
	.st3{fill:url(#SVGID_4_);}
	.st4{fill:url(#SVGID_5_);}
</style>
<g>
	<g>
		<linearGradient id="SVGID_1_" gradientUnits="userSpaceOnUse" x1="-17.4255" y1="117.975" x2="259.4286" y2="117.975">
			<stop  offset="0" style="stop-color:#1FC9DB"/>
			<stop  offset="1" style="stop-color:#1FE8CB"/>
		</linearGradient>
		<path class="st0" d="M117.97,235.95C52.92,235.95,0,183.03,0,117.97S52.92,0,117.97,0s117.97,52.92,117.97,117.97
			S183.03,235.95,117.97,235.95z M117.97,5.95C56.2,5.95,5.95,56.2,5.95,117.97S56.2,230,117.97,230S230,179.75,230,117.97
			S179.75,5.95,117.97,5.95z"/>
	</g>
	<g>
		<linearGradient id="SVGID_2_" gradientUnits="userSpaceOnUse" x1="-17.4255" y1="93.11" x2="259.4286" y2="93.11">
			<stop  offset="0" style="stop-color:#1FC9DB"/>
			<stop  offset="1" style="stop-color:#1FE8CB"/>
		</linearGradient>
		<circle class="st1" cx="87.84" cy="93.11" r="20.86"/>
		<linearGradient id="SVGID_3_" gradientUnits="userSpaceOnUse" x1="-17.4255" y1="137.735" x2="259.4286" y2="137.735">
			<stop  offset="0" style="stop-color:#1FC9DB"/>
			<stop  offset="1" style="stop-color:#1FE8CB"/>
		</linearGradient>
		<path class="st2" d="M111.6,125.57c-8.16-4.14-17.17-5.8-23.76-5.8c-12.92,0-39.41,7.92-39.41,23.76v12.17H91.9v-4.66
			c0-5.51,2.32-11.03,6.38-15.63C101.51,131.74,106.04,128.33,111.6,125.57z"/>
		<linearGradient id="SVGID_4_" gradientUnits="userSpaceOnUse" x1="-17.4255" y1="144.115" x2="259.4286" y2="144.115">
			<stop  offset="0" style="stop-color:#1FC9DB"/>
			<stop  offset="1" style="stop-color:#1FE8CB"/>
		</linearGradient>
		<path class="st3" d="M142.32,123.25c-15.09,0-45.2,9.32-45.2,27.82v13.91h90.41v-13.91C187.52,132.57,157.4,123.25,142.32,123.25z
			"/>
		<linearGradient id="SVGID_5_" gradientUnits="userSpaceOnUse" x1="-17.4255" y1="88.47" x2="259.4286" y2="88.47">
			<stop  offset="0" style="stop-color:#1FC9DB"/>
			<stop  offset="1" style="stop-color:#1FE8CB"/>
		</linearGradient>
		<circle class="st4" cx="142.32" cy="88.47" r="25.5"/>
	</g>
</g>
</svg>
