<?xml version="1.0" encoding="utf-8"?>
<!-- Generator: Adobe Illustrator 24.0.0, SVG Export Plug-In . SVG Version: 6.00 Build 0)  -->
<svg version="1.1" id="Layer_1" xmlns="http://www.w3.org/2000/svg" xmlns:xlink="http://www.w3.org/1999/xlink" x="0px" y="0px"
	 viewBox="0 0 120 120" style="enable-background:new 0 0 120 120;" xml:space="preserve">
<style type="text/css">
	.st0{fill:url(#SVGID_1_);}
	.st1{fill:url(#SVGID_2_);}
	.st2{fill:url(#SVGID_3_);}
	.st3{fill:url(#SVGID_4_);}
	.st4{fill:url(#SVGID_5_);}
	.st5{fill:url(#SVGID_6_);}
	.st6{fill:url(#SVGID_7_);}
	.st7{fill:url(#SVGID_8_);}
	.st8{fill:url(#SVGID_9_);}
	.st9{fill:url(#SVGID_10_);}
	.st10{fill:url(#SVGID_11_);}
	.st11{fill:url(#SVGID_12_);}
	.st12{fill:url(#SVGID_13_);}
	.st13{fill:url(#SVGID_14_);}
	.st14{fill:url(#SVGID_15_);}
	.st15{fill:url(#SVGID_16_);}
	.st16{fill:url(#SVGID_17_);}
	.st17{fill:url(#SVGID_18_);}
	.st18{fill:url(#SVGID_19_);}
	.st19{fill:url(#SVGID_20_);}
	.st20{fill:url(#SVGID_21_);}
	.st21{fill:url(#SVGID_22_);}
	.st22{fill:url(#SVGID_23_);}
	.st23{fill:url(#SVGID_24_);}
	.st24{fill:url(#SVGID_25_);}
	.st25{fill:url(#SVGID_26_);}
	.st26{fill:url(#SVGID_27_);}
	.st27{fill:url(#SVGID_28_);}
	.st28{fill:url(#SVGID_29_);}
	.st29{fill:url(#SVGID_30_);}
	.st30{fill:url(#SVGID_31_);}
	.st31{fill:url(#SVGID_32_);}
	.st32{fill:url(#SVGID_33_);}
	.st33{fill:url(#SVGID_34_);}
	.st34{fill:url(#SVGID_35_);}
	.st35{fill:url(#SVGID_36_);}
	.st36{fill:url(#SVGID_37_);}
	.st37{fill:url(#SVGID_38_);}
	.st38{fill:url(#SVGID_39_);}
	.st39{fill:url(#SVGID_40_);}
	.st40{fill:url(#SVGID_41_);}
	.st41{fill:url(#SVGID_42_);}
	.st42{fill:url(#SVGID_43_);}
	.st43{fill:url(#SVGID_44_);}
	.st44{fill:url(#SVGID_45_);}
	.st45{fill:url(#SVGID_46_);}
	.st46{fill:url(#SVGID_47_);}
	.st47{fill:url(#SVGID_48_);}
	.st48{fill:url(#SVGID_49_);}
	.st49{fill:url(#SVGID_50_);}
	.st50{fill:url(#SVGID_51_);}
	.st51{fill:url(#SVGID_52_);}
	.st52{fill:url(#SVGID_53_);}
	.st53{fill:#606060;}
</style>
<g>
	<path class="st53" d="M31.15,81.19c-0.24-0.14-0.53-0.08-0.8-0.08c-5.5,0-11,0-16.5,0c-0.33,0-0.65,0.01-0.98-0.01
		c-1.03-0.05-1.53-0.99-0.99-1.86c0.23-0.37,0.55-0.66,1.01-0.77c0.43-0.1,0.86-0.12,1.29-0.12c6.7,0,13.39,0,20.09,0.01
		c0.47,0,0.9-0.09,1.3-0.34c1.07-0.68,2.19-1.24,3.37-1.71c0.1-0.04,0.2-0.07,0.28-0.21c-0.23-0.13-0.48-0.08-0.7-0.08
		c-4.13,0-8.26,0-12.39,0c-0.26,0-0.53,0.01-0.78-0.04c-0.96-0.18-1.36-1.13-0.81-1.94c0.38-0.56,0.91-0.81,1.61-0.8
		c4.24,0.02,8.48,0.01,12.72,0.01c0.57,0,1.13-0.01,1.7,0c0.36,0.01,0.62-0.07,0.79-0.43c0.25-0.52,0.73-0.73,1.29-0.74
		c0.67-0.01,1.35-0.01,2.02-0.01c8.28,0,16.56,0,24.85,0c0.2,0,0.39-0.01,0.59,0.01c0.58,0.07,0.78,0.47,0.46,0.97
		c-0.5,0.79-1.04,1.55-1.54,2.34c-1.23,1.93-2.26,3.97-2.86,6.19c-0.33,1.24-0.54,2.51-0.23,3.8c0.37,1.51,1.37,2.43,2.79,2.93
		c0.84,0.29,1.73,0.42,2.62,0.46c0.95,0.04,1.91,0.02,2.87,0.01c0.54-0.01,0.62-0.08,0.77-0.6c0.78-2.8,1.57-5.6,2.41-8.39
		c0.72-2.39,1.4-4.79,2.1-7.19c0.09-0.29,0.19-0.58,0.28-0.87c0.15-0.5,0.11-0.57-0.4-0.74c-0.56-0.18-1.13-0.33-1.67-0.54
		c-1.3-0.5-2.7-0.63-4-1.12c-0.28-0.1-0.56-0.19-0.83-0.28c-0.07,0.13-0.03,0.21,0,0.29c0.22,0.64-0.03,1.16-0.7,1.34
		c-0.59,0.16-1.19,0.25-1.8,0.25c-1.24-0.01-2.48,0.07-3.71-0.07c-0.49-0.06-1-0.03-1.5,0c-1.5,0.11-2.99,0.1-4.49,0
		c-0.99-0.07-2-0.06-3,0.04c-0.67,0.07-1.35,0.04-2.02,0.04c-2.35,0-4.69-0.02-7.04-0.02c-2.13,0-4.26,0.02-6.38,0.02
		c-0.64,0-1.25-0.1-1.78-0.52c-0.24-0.19-0.38-0.41-0.39-0.72c-0.01-0.85-0.04-1.69-0.01-2.54c0.02-0.58,0.55-1.09,1.14-1.17
		c0.36-0.05,0.75-0.09,1.1,0.03c0.7,0.25,1.42,0.03,2.13,0.1c0.35,0.03,0.75-0.17,1.14-0.16c0.43,0.02,0.87-0.02,1.28,0.17
		c0.16,0.07,0.34,0.05,0.51,0.03c0.76-0.1,1.52-0.08,2.28-0.01c0.15,0.01,0.3,0.04,0.45,0c0.81-0.27,1.61-0.24,2.43-0.02
		c0.22,0.06,0.47-0.02,0.71-0.02c0.61-0.01,1.22-0.03,1.82,0.03c0.13,0.01,0.27,0.04,0.38,0c0.52-0.22,1.07-0.16,1.61-0.16
		c1.45-0.01,2.91,0,4.44,0c-0.28-0.3-0.55-0.54-0.76-0.83c-0.21-0.3-0.36-0.64-0.53-0.97c-0.6-1.2-0.77-2.45-0.5-3.79
		c0.21-1.04,0.38-2.09,0.64-3.12c0.43-1.69,1.02-3.32,1.65-4.94c1.64-4.22,3.75-8.22,6.07-12.1c0.83-1.4,1.68-2.79,2.67-4.1
		c1.38-1.83,3.2-3.01,5.46-3.38c2.02-0.33,3.9,0.12,5.45,1.54c0.78,0.71,1.22,1.64,1.46,2.65c0.52,2.22,1.02,4.44,1.61,6.65
		c0.32,1.17,0.61,2.35,0.91,3.53c0.17,0.67,0.37,0.85,1.06,0.96c1.63,0.25,3.26,0.51,4.89,0.75c0.84,0.12,1.68,0.24,2.52,0.31
		c0.63,0.06,0.63,0.02,0.73-0.59c0.09-0.56,0.47-0.94,1.07-1.08c1.08-0.25,2.19-0.35,3.28-0.51c1.12-0.16,2.24-0.31,3.35-0.49
		c1.11-0.18,2.24-0.32,3.36-0.44c0.76-0.08,1.03,0.22,1.01,0.97c-0.02,0.74-0.22,1.46-0.3,2.19c-0.25,2.13-0.57,4.26-0.87,6.39
		c-0.02,0.13-0.04,0.26-0.08,0.38c-0.18,0.55-0.55,0.84-1.13,0.77c-0.8-0.1-1.58-0.27-2.37-0.41c-0.47-0.08-0.94-0.18-1.42-0.22
		c-0.38-0.03-0.48,0.11-0.38,0.46c0.48,1.67,0.9,3.36,1.49,4.99c0.35,0.98,0.71,1.96,1.01,2.95c0.38,1.22,0.8,2.42,1.06,3.67
		c0.26,1.28,0.6,2.53,1.01,3.77c0.49,1.51,0.91,3.04,1.37,4.55c0.15,0.51,0.17,0.51,0.68,0.45c2.25-0.28,4.46-0.17,6.65,0.46
		c2.29,0.66,4.26,1.83,5.91,3.53c0.51,0.53,0.48,0.86-0.18,1.23c-1.17,0.66-2.37,1.28-3.55,1.92c-1.92,1.02-3.83,2.04-5.74,3.08
		c-2.25,1.23-4.53,2.41-6.79,3.61c-2.55,1.36-5.09,2.74-7.63,4.1c-1.55,0.83-3.1,1.66-4.66,2.48c-0.65,0.34-1.03,0.13-1.1-0.62
		c-0.05-0.61-0.04-1.22,0.03-1.82c0.06-0.52-0.01-0.62-0.55-0.62c-1.57-0.01-3.13-0.01-4.7-0.01c-19.67,0-39.35,0-59.02-0.01
		c-0.24,0-0.48,0.01-0.72-0.01c-0.53-0.05-0.86-0.47-0.76-0.99c0.09-0.49,0.21-0.98,0.38-1.45c0.13-0.37,0.05-0.47-0.33-0.51
		c-0.17-0.01-0.35-0.01-0.52-0.01c-2.28,0-4.57,0-6.85,0c-0.28,0-0.57,0.01-0.85-0.01c-1.03-0.06-1.51-1-0.97-1.88
		c0.25-0.41,0.6-0.68,1.08-0.78c0.3-0.06,0.6-0.1,0.91-0.1c2.76,0,5.52,0,8.28,0.02c0.36,0,0.57-0.1,0.73-0.41
		c0.26-0.5,0.55-0.99,0.81-1.49c0.17-0.32,0.11-0.42-0.26-0.45c-0.22-0.02-0.43-0.01-0.65-0.01c-8,0-16,0-24,0
		c-0.24,0-0.48,0.02-0.72-0.02c-0.91-0.15-1.34-1.03-0.86-1.82c0.3-0.5,0.72-0.87,1.38-0.83c0.33,0.02,0.65,0.01,0.98,0.01
		c8.5,0,17,0,25.5,0.01c0.59,0,1.02-0.13,1.4-0.62c0.39-0.51,0.9-0.94,1.36-1.4C31.03,81.44,31.17,81.39,31.15,81.19z M96.2,60.84
		c0.04-0.39,0.06-0.85,0.01-1.3c-0.1-0.91-0.22-1.81-0.28-2.72c-0.05-0.78-0.18-1.55-0.29-2.33c-0.08-0.54-0.13-0.57-0.65-0.62
		c-0.71-0.07-1.42-0.14-2.13-0.23c-1.59-0.21-3.2-0.32-4.8-0.45c-1.47-0.12-2.95-0.17-4.41-0.34c-1.32-0.16-2.21-0.81-2.73-2.01
		c-0.24-0.56-0.48-1.12-0.73-1.67c-0.26-0.6-0.51-1.2-0.79-1.79c-0.23-0.49-0.39-0.49-0.71-0.04c-0.04,0.05-0.07,0.11-0.1,0.17
		c-1.15,1.74-2.23,3.52-3.23,5.35c-0.85,1.56-1.65,3.16-2.3,4.82c-0.29,0.75-0.28,0.75,0.45,1.02c0.65,0.23,1.3,0.49,1.94,0.75
		c0.96,0.4,1.93,0.81,2.92,1.11c1.38,0.41,2.69,0.99,4.02,1.5c0.74,0.28,1.36,0.87,2.22,0.84c0.08,0,0.15,0.07,0.23,0.11
		c0.7,0.28,1.37,0.63,2.02,1.03c1.38,0.84,2.08,2.04,2.22,3.61c0.02,0.22,0.04,0.43,0.08,0.64c0.08,0.37,0.03,0.73-0.06,1.09
		c-0.14,0.58-0.51,1.05-0.73,1.6c-0.94,2.36-1.87,4.72-2.82,7.08c-1.18,2.9-2.38,5.78-3.57,8.67c-0.22,0.54-0.47,1.07-0.68,1.62
		c-0.13,0.35-0.07,0.43,0.31,0.42c0.37-0.01,0.73-0.07,1.1-0.11c2.58-0.29,4.93-1.16,6.96-2.83c1.61-1.32,2.79-2.97,3.74-4.79
		c1.42-2.72,2.63-7.44,2.65-11.1c0-0.09,0.03-0.17,0.03-0.26c-0.05-0.66,0.27-1.27,0.27-1.93c0-0.89-0.01-1.78,0.02-2.67
		C96.43,63.67,96.24,62.29,96.2,60.84z"/>
	<path class="st53" d="M22.66,57.2c0.91,0,1.83,0.02,2.74-0.01c0.65-0.02,1.29-0.14,1.95-0.1c0.43,0.03,0.86,0.13,1.3,0.1
		c0.57-0.04,0.62-0.07,0.73-0.62c0.07-0.36,0.14-0.73,0.19-1.09c0.09-0.58-0.01-0.71-0.59-0.71c-1.24-0.01-2.48,0-3.72,0
		c-0.22,0-0.43,0-0.65-0.01c-0.68-0.03-1.05-0.27-1.22-0.78c-0.16-0.49,0.03-1.11,0.46-1.47c0.34-0.29,0.73-0.43,1.2-0.43
		c1.39,0.01,2.78,0.01,4.17,0c0.17,0,0.35,0,0.52-0.01c0.27-0.01,0.43-0.15,0.48-0.43c0.18-1.14,0.36-2.27,0.55-3.4
		c0.1-0.64,0.21-1.29,0.32-1.93c0.35-2.01,0.7-4.02,1.04-6.03c0.07-0.41,0.09-0.82,0.2-1.22c0.35-1.27,1.35-2.07,2.66-2.1
		c0.52-0.01,1.04-0.01,1.57-0.01c7.15,0,14.3,0,21.45,0c0.17,0,0.35,0.01,0.52,0.01c1.25,0.02,2.01,1.13,1.81,2.28
		c-0.4,2.31-0.83,4.62-1.18,6.93c-0.3,2.02-0.73,4.02-1,6.04c-0.15,1.18-0.4,2.35-0.6,3.53c-0.27,1.56-0.53,3.12-0.8,4.69
		c-0.07,0.42-0.25,0.84-0.03,1.27c-0.31,0.95-0.25,2.05-1.35,2.67c-0.8,0.45-1.56,0.72-2.47,0.57c-0.13-0.02-0.28-0.04-0.39,0
		c-0.57,0.22-1.16,0.09-1.74,0.13c-0.2,0.01-0.39,0.03-0.58-0.06c-0.23-0.11-0.46-0.09-0.7-0.06c-0.04,0.01-0.09,0.02-0.13,0.02
		c-0.44,0.06-4.51-0.03-4.92-0.01c-0.71,0.03-1.42-0.08-2.13,0.07c-0.61,0.12-1.25,0.08-1.88-0.02c-0.06-0.01-0.13-0.05-0.19-0.05
		c-1.15,0.1-2.29-0.03-3.44,0.03c-0.73,0.04-1.45,0.23-2.19-0.04c-0.32-0.12-0.7-0.09-1.03,0.03c-0.69,0.25-1.38,0.09-2.06,0.02
		c-0.32-0.03-0.64-0.1-0.96-0.05c-0.67,0.1-1.34,0.09-2.02,0.01c-0.15-0.02-0.32-0.06-0.45-0.01c-0.82,0.27-1.62,0.16-2.43-0.01
		c-0.04-0.01-0.09-0.02-0.13-0.02c-0.81,0.17-1.64-0.09-2.46,0.07c-0.44,0.09-0.91,0.05-1.37,0.06c-0.96,0.01-1.91-0.03-2.87,0.04
		c-0.06,0.01-0.13,0.01-0.19,0.01c-1.99-0.26-3.98-0.14-5.97-0.16c-0.5,0-0.93-0.16-1.14-0.6c-0.23-0.48-0.17-0.98,0.17-1.41
		c0.36-0.45,0.83-0.68,1.42-0.68c1.24,0.01,2.48,0,3.72,0c0.5,0,1,0.04,1.48-0.17c0.11-0.05,0.26-0.04,0.38-0.03
		c1.63,0.16,3.25,0.07,4.88,0.03c0.11,0,0.23-0.03,0.32,0.02c0.52,0.25,1.08,0.2,1.6,0.13c0.69-0.1,1.38-0.07,2.07-0.1
		c0.71-0.03,0.72-0.04,0.83-0.72c0.04-0.28,0.15-0.54,0.24-0.81c0.22-0.6,0.02-0.88-0.58-0.73c-0.52,0.13-1.04,0.13-1.55,0.09
		c-2.34-0.22-4.69-0.06-7.03-0.11c-0.04,0-0.09,0-0.13,0c-0.5,0.02-0.92-0.14-1.14-0.6c-0.24-0.5-0.12-0.98,0.2-1.41
		c0.33-0.45,0.78-0.67,1.35-0.66C20.75,57.21,21.7,57.2,22.66,57.2C22.66,57.2,22.66,57.2,22.66,57.2z"/>
	<path class="st53" d="M119.52,92.41c0.09,3.12-1,5.64-2.6,7.98c-1.42,2.07-3.3,3.63-5.51,4.78c-1.37,0.71-2.81,1.27-4.37,1.41
		c-0.56,0.05-1.11,0.23-1.68,0.22c-2.69-0.04-5.15-0.76-7.22-2.54c-1.26-1.08-2.17-2.42-2.73-3.99c-0.34-0.96-0.61-1.95-0.62-2.98
		c-0.01-0.41,0.09-0.69,0.49-0.9c1.18-0.61,2.34-1.25,3.5-1.88c0.53-0.29,1.07-0.58,1.6-0.87c0.15-0.08,0.31-0.21,0.48-0.06
		c0.15,0.13,0.13,0.33,0.08,0.49c-0.19,0.52-0.22,1.06-0.21,1.6c0.04,2.7,1.92,4.72,4.4,5.13c1.67,0.27,3.2-0.13,4.62-0.97
		c1.94-1.15,3.26-2.84,3.73-5.04c0.5-2.33-0.16-4.59-2.47-5.93c-0.22-0.13-0.54-0.2-0.54-0.51c0-0.29,0.34-0.3,0.54-0.41
		c1.64-0.89,3.29-1.78,4.93-2.66c0.51-0.27,0.52-0.28,0.94,0.15c1.14,1.16,1.86,2.55,2.32,4.1
		C119.49,90.54,119.55,91.57,119.52,92.41z"/>
	<path class="st53" d="M84.89,16.49c3.83-0.16,7.77,2.51,9.13,6.34c0.21,0.6,0.34,1.21,0.5,1.82c0.03,0.12,0.05,0.26,0.04,0.39
		c-0.02,0.39-0.18,0.52-0.54,0.4c-0.52-0.16-1.02-0.36-1.53-0.55c-1.8-0.64-3.6-1.28-5.4-1.92c-0.14-0.05-0.29-0.11-0.43-0.13
		c-0.43-0.08-0.65,0.05-0.82,0.45c-0.06,0.16-0.1,0.33-0.13,0.5c-0.16,0.88-0.31,1.75-0.46,2.63c-0.28,1.66,0.14,3.05,1.58,4.05
		c1.21,0.84,2.41,1.71,3.62,2.55c0.8,0.56,0.81,0.65,0.03,1.24c-0.68,0.51-1.44,0.88-2.24,1.18c-0.37,0.14-0.72,0.09-1.07-0.09
		c-2.81-1.46-5.63-2.92-8.45-4.38c-0.91-0.47-1.8-0.96-2.72-1.41c-0.39-0.19-0.63-0.45-0.7-0.87c-0.16-0.9-0.38-1.78-0.32-2.7
		c0.11-1.79,0.57-3.47,1.53-4.99c1.63-2.55,3.99-3.99,6.95-4.49c0.06-0.01,0.13-0.02,0.19-0.02C84.06,16.49,84.48,16.49,84.89,16.49
		z"/>
	<path class="st53" d="M31.29,95.43c0.72,0,1.43,0,2.15,0c0.69,0,0.82,0.1,0.87,0.75c0.21,2.72,2.28,4.58,5.09,4.7
		c1.79,0.08,3.35-0.56,4.75-1.65c1.1-0.86,1.94-1.92,2.47-3.22c0.17-0.42,0.41-0.6,0.88-0.6c1.48,0.03,2.95,0.01,4.43,0.01
		c0.09,0,0.17,0,0.26,0.01c0.39,0.05,0.5,0.18,0.4,0.57c-0.11,0.44-0.26,0.87-0.43,1.29c-0.98,2.46-2.57,4.48-4.58,6.16
		c-0.95,0.79-1.99,1.47-3.14,1.95c-0.8,0.34-1.59,0.69-2.44,0.91c-1.92,0.49-3.84,0.66-5.79,0.18c-3.71-0.9-6.26-3.06-7.44-6.74
		c-0.37-1.15-0.53-2.32-0.5-3.53c0.02-0.7,0.11-0.8,0.79-0.8C29.81,95.43,30.55,95.43,31.29,95.43
		C31.29,95.43,31.29,95.43,31.29,95.43z"/>
</g>
</svg>
