<?xml version="1.0" encoding="utf-8"?>
<!-- Generator: Adobe Illustrator 24.0.0, SVG Export Plug-In . SVG Version: 6.00 Build 0)  -->
<svg version="1.1" id="Layer_1" xmlns="http://www.w3.org/2000/svg" xmlns:xlink="http://www.w3.org/1999/xlink" x="0px" y="0px"
	 viewBox="0 0 120 120" style="enable-background:new 0 0 120 120;" xml:space="preserve">
<style type="text/css">
	.st0{fill:url(#SVGID_1_);}
	.st1{fill:url(#SVGID_2_);}
	.st2{fill:url(#SVGID_3_);}
	.st3{fill:url(#SVGID_4_);}
	.st4{fill:url(#SVGID_5_);}
	.st5{fill:url(#SVGID_6_);}
	.st6{fill:url(#SVGID_7_);}
	.st7{fill:url(#SVGID_8_);}
	.st8{fill:url(#SVGID_9_);}
	.st9{fill:url(#SVGID_10_);}
	.st10{fill:url(#SVGID_11_);}
	.st11{fill:url(#SVGID_12_);}
	.st12{fill:url(#SVGID_13_);}
	.st13{fill:url(#SVGID_14_);}
	.st14{fill:url(#SVGID_15_);}
	.st15{fill:url(#SVGID_16_);}
	.st16{fill:url(#SVGID_17_);}
	.st17{fill:url(#SVGID_18_);}
	.st18{fill:url(#SVGID_19_);}
	.st19{fill:url(#SVGID_20_);}
	.st20{fill:url(#SVGID_21_);}
	.st21{fill:url(#SVGID_22_);}
	.st22{fill:url(#SVGID_23_);}
	.st23{fill:url(#SVGID_24_);}
	.st24{fill:url(#SVGID_25_);}
	.st25{fill:url(#SVGID_26_);}
	.st26{fill:url(#SVGID_27_);}
	.st27{fill:url(#SVGID_28_);}
	.st28{fill:url(#SVGID_29_);}
	.st29{fill:url(#SVGID_30_);}
	.st30{fill:url(#SVGID_31_);}
	.st31{fill:url(#SVGID_32_);}
	.st32{fill:url(#SVGID_33_);}
	.st33{fill:url(#SVGID_34_);}
	.st34{fill:url(#SVGID_35_);}
	.st35{fill:url(#SVGID_36_);}
	.st36{fill:url(#SVGID_37_);}
	.st37{fill:url(#SVGID_38_);}
	.st38{fill:url(#SVGID_39_);}
	.st39{fill:url(#SVGID_40_);}
	.st40{fill:url(#SVGID_41_);}
	.st41{fill:url(#SVGID_42_);}
	.st42{fill:url(#SVGID_43_);}
	.st43{fill:url(#SVGID_44_);}
	.st44{fill:url(#SVGID_45_);}
	.st45{fill:url(#SVGID_46_);}
	.st46{fill:url(#SVGID_47_);}
	.st47{fill:url(#SVGID_48_);}
	.st48{fill:url(#SVGID_49_);}
	.st49{fill:url(#SVGID_50_);}
	.st50{fill:url(#SVGID_51_);}
	.st51{fill:url(#SVGID_52_);}
	.st52{fill:url(#SVGID_53_);}
	.st53{fill:#606060;}
</style>
<g>
	<g>
		<linearGradient id="SVGID_1_" gradientUnits="userSpaceOnUse" x1="0.2696" y1="60.1348" x2="120" y2="60.1348">
			<stop  offset="0" style="stop-color:#1FC9DB"/>
			<stop  offset="1" style="stop-color:#1FE8CB"/>
		</linearGradient>
		<path class="st0" d="M60.13,120C27.13,120,0.27,93.14,0.27,60.13S27.13,0.27,60.13,0.27S120,27.13,120,60.13S93.14,120,60.13,120z
			 M60.13,3.29c-31.35,0-56.85,25.5-56.85,56.85s25.5,56.85,56.85,56.85s56.85-25.5,56.85-56.85S91.48,3.29,60.13,3.29z"/>
	</g>
	<linearGradient id="SVGID_2_" gradientUnits="userSpaceOnUse" x1="27.4049" y1="62.1646" x2="98.4466" y2="62.1646">
		<stop  offset="0" style="stop-color:#1FC9DB"/>
		<stop  offset="1" style="stop-color:#1FE8CB"/>
	</linearGradient>
	<path class="st1" d="M96.67,72.82h-1.78v-12c0-1.41-0.57-2.76-1.57-3.76L82.24,45.97c-1-1-2.35-1.57-3.76-1.57h-4.9v-5.33
		c0-2.94-2.39-5.33-5.33-5.33H39.84c-2.94,0-5.33,2.39-5.33,5.33v5.33h-6.22c-0.49,0-0.89,0.4-0.89,0.89v1.78
		c0,0.49,0.4,0.89,0.89,0.89h30.19c0.49,0,0.89,0.4,0.89,0.89v1.78c0,0.49-0.4,0.89-0.89,0.89H31.84c-0.49,0-0.89,0.4-0.89,0.89
		v1.78c0,0.49,0.4,0.89,0.89,0.89h23.09c0.49,0,0.89,0.4,0.89,0.89v1.78c0,0.49-0.4,0.89-0.89,0.89H28.29
		c-0.49,0-0.89,0.4-0.89,0.89v1.78c0,0.49,0.4,0.89,0.89,0.89h23.09c0.49,0,0.89,0.4,0.89,0.89v1.78c0,0.49-0.4,0.89-0.89,0.89
		H34.51v14.21c0,5.88,4.77,10.66,10.66,10.66s10.66-4.77,10.66-10.66h14.21c0,5.88,4.77,10.66,10.66,10.66s10.66-4.77,10.66-10.66
		h5.33c0.98,0,1.78-0.8,1.78-1.78V74.6C98.45,73.62,97.65,72.82,96.67,72.82z M45.17,85.25c-2.94,0-5.33-2.39-5.33-5.33
		s2.39-5.33,5.33-5.33s5.33,2.39,5.33,5.33S48.11,85.25,45.17,85.25z M80.69,85.25c-2.94,0-5.33-2.39-5.33-5.33s2.39-5.33,5.33-5.33
		s5.33,2.39,5.33,5.33S83.63,85.25,80.69,85.25z M89.57,62.16H73.58V49.73h4.9l11.09,11.09V62.16z"/>
</g>
</svg>
