<?xml version="1.0" encoding="utf-8"?>
<!-- Generator: Adobe Illustrator 24.0.0, SVG Export Plug-In . SVG Version: 6.00 Build 0)  -->
<svg version="1.1" id="Layer_1" xmlns="http://www.w3.org/2000/svg" xmlns:xlink="http://www.w3.org/1999/xlink" x="0px" y="0px"
	 viewBox="0 0 125 125" style="enable-background:new 0 0 125 125;" xml:space="preserve">
<style type="text/css">
	.st0{fill:#606161;}
	.st1{fill:#FFFFFF;}
</style>
<g>
	<path class="st0" d="M62.5,0.29c-34.38,0-62.36,27.97-62.36,62.36S28.12,125,62.5,125s62.36-27.97,62.36-62.36
		S96.88,0.29,62.5,0.29z M62.5,112.89c-27.7,0-50.24-22.54-50.24-50.24S34.8,12.4,62.5,12.4s50.24,22.54,50.24,50.24
		S90.2,112.89,62.5,112.89z"/>
	<path class="st0" d="M93.14,57.02H68.56V32.44c0-3.35-2.71-6.06-6.06-6.06s-6.06,2.71-6.06,6.06v24.59H31.86
		c-3.35,0-6.06,2.71-6.06,6.06s2.71,6.06,6.06,6.06h24.59v24.59c0,3.35,2.71,6.06,6.06,6.06s6.06-2.71,6.06-6.06V69.14h24.59
		c3.35,0,6.06-2.71,6.06-6.06S96.49,57.02,93.14,57.02z"/>
</g>
</svg>
