<?xml version="1.0" encoding="utf-8"?>
<!-- Generator: Adobe Illustrator 24.0.0, SVG Export Plug-In . SVG Version: 6.00 Build 0)  -->
<svg version="1.1" id="Layer_1" xmlns="http://www.w3.org/2000/svg" xmlns:xlink="http://www.w3.org/1999/xlink" x="0px" y="0px"
	 viewBox="0 0 235.95 235.95" style="enable-background:new 0 0 235.95 235.95;" xml:space="preserve">
<style type="text/css">
	.st0{fill:#606161;}
	.st1{fill:#FFFFFF;}
</style>
<path class="st0" d="M137.41,98.81l0-78.87c0-10.73-8.7-19.43-19.43-19.43c-10.73,0-19.43,8.7-19.43,19.43l0,78.87l-78.87,0
	c-10.73,0-19.44,8.7-19.43,19.43c0,10.73,8.7,19.43,19.43,19.43l78.87,0l0,78.87c0,10.73,8.7,19.43,19.43,19.43
	c5.37,0,10.22-2.17,13.74-5.69c3.52-3.52,5.69-8.37,5.69-13.74l0-78.87l78.87,0c5.37,0,10.22-2.17,13.74-5.69
	c3.52-3.52,5.69-8.37,5.69-13.74c0-10.73-8.7-19.43-19.43-19.43L137.41,98.81z"/>
</svg>
