<?xml version="1.0" encoding="utf-8"?>
<!-- Generator: Adobe Illustrator 24.0.0, SVG Export Plug-In . SVG Version: 6.00 Build 0)  -->
<svg version="1.1" id="Layer_1" xmlns="http://www.w3.org/2000/svg" xmlns:xlink="http://www.w3.org/1999/xlink" x="0px" y="0px"
	 viewBox="0 0 120 120" style="enable-background:new 0 0 120 120;" xml:space="preserve">
<style type="text/css">
	.st0{fill:url(#SVGID_1_);}
	.st1{fill:url(#SVGID_2_);}
	.st2{fill:url(#SVGID_3_);}
	.st3{fill:url(#SVGID_4_);}
	.st4{fill:url(#SVGID_5_);}
	.st5{fill:url(#SVGID_6_);}
	.st6{fill:url(#SVGID_7_);}
	.st7{fill:url(#SVGID_8_);}
	.st8{fill:url(#SVGID_9_);}
	.st9{fill:url(#SVGID_10_);}
	.st10{fill:url(#SVGID_11_);}
	.st11{fill:url(#SVGID_12_);}
	.st12{fill:url(#SVGID_13_);}
	.st13{fill:url(#SVGID_14_);}
	.st14{fill:url(#SVGID_15_);}
	.st15{fill:url(#SVGID_16_);}
	.st16{fill:url(#SVGID_17_);}
	.st17{fill:url(#SVGID_18_);}
	.st18{fill:url(#SVGID_19_);}
	.st19{fill:url(#SVGID_20_);}
	.st20{fill:url(#SVGID_21_);}
	.st21{fill:url(#SVGID_22_);}
	.st22{fill:url(#SVGID_23_);}
	.st23{fill:url(#SVGID_24_);}
	.st24{fill:url(#SVGID_25_);}
	.st25{fill:url(#SVGID_26_);}
	.st26{fill:url(#SVGID_27_);}
	.st27{fill:url(#SVGID_28_);}
	.st28{fill:url(#SVGID_29_);}
	.st29{fill:url(#SVGID_30_);}
	.st30{fill:url(#SVGID_31_);}
	.st31{fill:url(#SVGID_32_);}
	.st32{fill:url(#SVGID_33_);}
	.st33{fill:url(#SVGID_34_);}
	.st34{fill:url(#SVGID_35_);}
	.st35{fill:url(#SVGID_36_);}
	.st36{fill:url(#SVGID_37_);}
	.st37{fill:url(#SVGID_38_);}
	.st38{fill:url(#SVGID_39_);}
	.st39{fill:url(#SVGID_40_);}
	.st40{fill:url(#SVGID_41_);}
	.st41{fill:url(#SVGID_42_);}
	.st42{fill:url(#SVGID_43_);}
	.st43{fill:url(#SVGID_44_);}
	.st44{fill:url(#SVGID_45_);}
	.st45{fill:url(#SVGID_46_);}
	.st46{fill:url(#SVGID_47_);}
	.st47{fill:url(#SVGID_48_);}
	.st48{fill:url(#SVGID_49_);}
	.st49{fill:url(#SVGID_50_);}
	.st50{fill:url(#SVGID_51_);}
	.st51{fill:url(#SVGID_52_);}
	.st52{fill:url(#SVGID_53_);}
	.st53{fill:#606060;}
</style>
<g>
	<g>
		<linearGradient id="SVGID_1_" gradientUnits="userSpaceOnUse" x1="20.2146" y1="58.6398" x2="142.3015" y2="62.8137">
			<stop  offset="0" style="stop-color:#1FC9DB"/>
			<stop  offset="1" style="stop-color:#1FE8CB"/>
		</linearGradient>
		<path class="st0" d="M60,0C26.92,0,0,26.92,0,60s26.92,60,60,60s60-26.92,60-60S93.08,0,60,0z M60,116.97
			C28.58,116.97,3.03,91.42,3.03,60S28.58,3.03,60,3.03S116.97,28.58,116.97,60S91.42,116.97,60,116.97z"/>
	</g>
	<g>
		<linearGradient id="SVGID_2_" gradientUnits="userSpaceOnUse" x1="20.2125" y1="58.6996" x2="142.2995" y2="62.8735">
			<stop  offset="0" style="stop-color:#1FC9DB"/>
			<stop  offset="1" style="stop-color:#1FE8CB"/>
		</linearGradient>
		<path class="st1" d="M42.07,98.57c-2.24-0.44-4.32-1.27-6.14-2.69c-4.1-3.21-5.84-8.56-4.44-13.7c1.34-4.89,5.69-8.61,10.77-9.27
			c2.46-0.32,4.8,0.06,7.03,1.11c0.53,0.25,0.72,0.15,0.94-0.36c0.99-2.3,2.01-4.59,3.05-6.88c0.2-0.44,0.12-0.81-0.05-1.22
			c-3.16-7.57-6.31-15.13-9.46-22.7c-1.35-3.24-2.72-6.47-4.04-9.72c-1.61-3.95-0.38-7.9,3.16-10.29c0.44-0.29,0.87-0.59,1.32-0.88
			c1.39-0.91,2.4-0.62,3.06,0.88c1.16,2.61,2.31,5.23,3.47,7.84c2.96,6.7,5.92,13.39,8.89,20.09c0.09,0.19,0.11,0.53,0.37,0.5
			c0.27-0.03,0.3-0.37,0.4-0.59c4.09-9.24,8.17-18.48,12.26-27.72c0.12-0.27,0.25-0.55,0.42-0.8c0.46-0.66,1.3-0.97,1.99-0.58
			c1.75,0.98,3.48,2.02,4.58,3.8c1.51,2.46,1.73,5.04,0.62,7.7c-2.35,5.68-4.72,11.34-7.08,17.01c-2.15,5.16-4.3,10.32-6.45,15.48
			c-0.16,0.38-0.25,0.73-0.06,1.15c1.04,2.31,2.08,4.62,3.08,6.95c0.24,0.56,0.47,0.54,0.95,0.32c7.54-3.47,16.29,0.94,18,9.06
			c1.49,7.07-3.16,14.02-10.3,15.38c-0.17,0.03-0.34,0.08-0.51,0.12c-1.25,0-2.51,0-3.76,0c-0.07-0.03-0.14-0.07-0.21-0.09
			c-6.22-1.12-10.75-6.81-10.84-13.46c-0.04-3.17-0.9-6.13-2.53-8.86c-0.53-0.88-0.62-0.88-1.14,0c-1.77,2.96-2.5,6.18-2.56,9.61
			c-0.07,4.22-1.8,7.64-5.13,10.25c-1.74,1.36-3.75,2.08-5.88,2.54C44.58,98.57,43.33,98.57,42.07,98.57z M82.36,85.69
			c-0.01-3.42-2.84-6.27-6.27-6.32c-3.45-0.04-6.36,2.84-6.41,6.35c-0.05,3.4,2.88,6.33,6.33,6.33
			C79.53,92.06,82.37,89.21,82.36,85.69z M43.97,92.06c3.42-0.01,6.28-2.85,6.31-6.28c0.03-3.46-2.86-6.37-6.36-6.41
			c-3.43-0.04-6.34,2.91-6.32,6.41C37.62,89.25,40.49,92.07,43.97,92.06z M60.01,63.38c-1.74-0.01-3.13,1.34-3.14,3.05
			c-0.01,1.73,1.43,3.2,3.13,3.18c1.69-0.02,3.09-1.44,3.1-3.14C63.11,64.75,61.74,63.38,60.01,63.38z"/>
	</g>
</g>
</svg>
