<?xml version="1.0" encoding="utf-8"?>
<!-- Generator: Adobe Illustrator 24.0.0, SVG Export Plug-In . SVG Version: 6.00 Build 0)  -->
<svg version="1.1" id="Layer_1" xmlns="http://www.w3.org/2000/svg" xmlns:xlink="http://www.w3.org/1999/xlink" x="0px" y="0px"
	 viewBox="0 0 125 125" style="enable-background:new 0 0 125 125;" xml:space="preserve">
<style type="text/css">
	.st0{fill:#606161;}
	.st1{fill:#FFFFFF;}
</style>
<g>
	<g>
		<path class="st0" d="M94.55,0c2.61,0.61,5.21,1.26,7.58,2.57c13.88,7.65,16.54,25.77,5.35,37.03
			C92.52,54.64,77.49,69.61,62.49,84.61c-5.8,5.8-11.61,11.61-17.42,17.41c-2.43,2.43-5.26,4.01-8.74,4.42
			c-7.07,0.82-13.73-3.81-15.21-10.81c-1.04-4.91,0.23-9.26,3.72-12.9c1.6-1.67,3.27-3.28,4.91-4.92
			c19.71-19.71,39.43-39.43,59.14-59.14c1.26-1.26,1.26-1.26,2.53,0.01c1.55,1.55,3.09,3.12,4.67,4.65
			c0.59,0.57,0.71,1.04,0.03,1.59c-0.25,0.2-0.46,0.46-0.69,0.69C74.32,46.69,53.23,67.78,32.13,88.87
			c-1.24,1.24-2.13,2.59-1.82,4.41c0.3,1.74,1.29,2.98,3,3.52c1.78,0.56,3.37,0.16,4.7-1.17c3.74-3.73,7.48-7.47,11.21-11.2
			c17.07-17.07,34.13-34.15,51.21-51.2c2.38-2.38,3.9-5.12,4.36-8.49c0.97-7.01-4.01-13.92-10.98-15.12
			c-4.74-0.81-8.89,0.42-12.29,3.81c-21.14,21.1-42.31,42.17-63.33,63.4c-6.39,6.46-7.96,14.49-5.15,23.03
			c2.84,8.64,9.12,13.84,18.08,15.33c7.76,1.29,14.53-1.1,20.11-6.69c21.18-21.18,42.36-42.36,63.54-63.54
			c0.26-0.26,0.53-0.5,0.77-0.78c0.43-0.49,0.83-0.55,1.32-0.05c1.8,1.82,3.61,3.63,5.43,5.43c0.48,0.48,0.51,0.88,0,1.33
			c-0.21,0.19-0.4,0.4-0.6,0.6c-21.15,21.15-42.31,42.29-63.44,63.46c-5.67,5.68-12.41,9.18-20.4,9.89
			c-9.55,0.85-18.03-1.91-25.1-8.45c-7.38-6.83-10.84-15.41-10.4-25.43C2.72,82.8,5.84,75.7,11.61,69.9
			C28.12,53.31,44.7,36.78,61.25,20.23c4.28-4.28,8.6-8.53,12.84-12.85c3.73-3.8,8.11-6.32,13.39-7.21C87.64,0.13,87.8,0.05,87.96,0
			C90.16,0,92.35,0,94.55,0z"/>
	</g>
</g>
</svg>
