<?xml version="1.0" encoding="utf-8"?>
<!-- Generator: Adobe Illustrator 24.0.0, SVG Export Plug-In . SVG Version: 6.00 Build 0)  -->
<svg version="1.1" id="Layer_1" xmlns="http://www.w3.org/2000/svg" xmlns:xlink="http://www.w3.org/1999/xlink" x="0px" y="0px"
	 viewBox="0 0 120 120" style="enable-background:new 0 0 120 120;" xml:space="preserve">
<style type="text/css">
	.st0{fill:url(#SVGID_1_);}
	.st1{fill:url(#SVGID_2_);}
	.st2{fill:url(#SVGID_3_);}
	.st3{fill:url(#SVGID_4_);}
	.st4{fill:url(#SVGID_5_);}
	.st5{fill:url(#SVGID_6_);}
	.st6{fill:url(#SVGID_7_);}
	.st7{fill:url(#SVGID_8_);}
	.st8{fill:url(#SVGID_9_);}
	.st9{fill:url(#SVGID_10_);}
	.st10{fill:url(#SVGID_11_);}
	.st11{fill:url(#SVGID_12_);}
	.st12{fill:url(#SVGID_13_);}
	.st13{fill:url(#SVGID_14_);}
	.st14{fill:url(#SVGID_15_);}
	.st15{fill:url(#SVGID_16_);}
	.st16{fill:url(#SVGID_17_);}
	.st17{fill:url(#SVGID_18_);}
	.st18{fill:url(#SVGID_19_);}
	.st19{fill:url(#SVGID_20_);}
	.st20{fill:url(#SVGID_21_);}
	.st21{fill:url(#SVGID_22_);}
	.st22{fill:url(#SVGID_23_);}
	.st23{fill:url(#SVGID_24_);}
	.st24{fill:url(#SVGID_25_);}
	.st25{fill:url(#SVGID_26_);}
	.st26{fill:url(#SVGID_27_);}
	.st27{fill:url(#SVGID_28_);}
	.st28{fill:url(#SVGID_29_);}
	.st29{fill:url(#SVGID_30_);}
	.st30{fill:url(#SVGID_31_);}
	.st31{fill:url(#SVGID_32_);}
	.st32{fill:url(#SVGID_33_);}
	.st33{fill:url(#SVGID_34_);}
	.st34{fill:url(#SVGID_35_);}
	.st35{fill:url(#SVGID_36_);}
	.st36{fill:url(#SVGID_37_);}
	.st37{fill:url(#SVGID_38_);}
	.st38{fill:url(#SVGID_39_);}
	.st39{fill:url(#SVGID_40_);}
	.st40{fill:url(#SVGID_41_);}
	.st41{fill:url(#SVGID_42_);}
	.st42{fill:url(#SVGID_43_);}
	.st43{fill:url(#SVGID_44_);}
	.st44{fill:url(#SVGID_45_);}
	.st45{fill:url(#SVGID_46_);}
	.st46{fill:url(#SVGID_47_);}
	.st47{fill:url(#SVGID_48_);}
	.st48{fill:url(#SVGID_49_);}
	.st49{fill:url(#SVGID_50_);}
	.st50{fill:url(#SVGID_51_);}
	.st51{fill:url(#SVGID_52_);}
	.st52{fill:url(#SVGID_53_);}
	.st53{fill:#606060;}
</style>
<g>
	<g>
		<linearGradient id="SVGID_1_" gradientUnits="userSpaceOnUse" x1="1.5473" y1="61.7151" x2="117.1125" y2="58.3238">
			<stop  offset="0" style="stop-color:#1FC9DB"/>
			<stop  offset="1" style="stop-color:#1FE8CB"/>
		</linearGradient>
		<path class="st0" d="M60,120C26.92,120,0,93.08,0,60S26.92,0,60,0s60,26.92,60,60S93.08,120,60,120z M60,3.03
			C28.58,3.03,3.03,28.58,3.03,60S28.58,116.97,60,116.97S116.97,91.42,116.97,60S91.42,3.03,60,3.03z"/>
	</g>
	<linearGradient id="SVGID_2_" gradientUnits="userSpaceOnUse" x1="1.5484" y1="61.7558" x2="117.1137" y2="58.3645">
		<stop  offset="0" style="stop-color:#1FC9DB"/>
		<stop  offset="1" style="stop-color:#1FE8CB"/>
	</linearGradient>
	<path class="st1" d="M104.58,53.71v2.42c0,2-1.62,3.62-3.62,3.62h-1.21l-3.94,27.6c-0.51,3.57-3.57,6.22-7.17,6.22H33.56
		c-3.61,0-6.66-2.65-7.17-6.22l-3.94-27.6h-1.21c-2,0-3.62-1.62-3.62-3.62v-2.42c0-2,1.62-3.62,3.62-3.62H31.4l16.12-22.17
		c1.57-2.16,4.59-2.64,6.75-1.07c2.16,1.57,2.64,4.59,1.07,6.75L43.35,50.08h35.49L66.85,33.6c-1.57-2.16-1.09-5.18,1.07-6.75
		c2.16-1.57,5.18-1.09,6.75,1.07l16.12,22.17h10.17C102.96,50.08,104.58,51.7,104.58,53.71z M64.72,80.28V63.37
		c0-2-1.62-3.62-3.62-3.62c-2,0-3.62,1.62-3.62,3.62v16.91c0,2,1.62,3.62,3.62,3.62C63.1,83.9,64.72,82.28,64.72,80.28z
		 M81.63,80.28V63.37c0-2-1.62-3.62-3.62-3.62c-2,0-3.62,1.62-3.62,3.62v16.91c0,2,1.62,3.62,3.62,3.62
		C80.01,83.9,81.63,82.28,81.63,80.28z M47.81,80.28V63.37c0-2-1.62-3.62-3.62-3.62s-3.62,1.62-3.62,3.62v16.91
		c0,2,1.62,3.62,3.62,3.62S47.81,82.28,47.81,80.28z"/>
</g>
</svg>
