<?xml version="1.0" encoding="utf-8"?>
<!-- Generator: Adobe Illustrator 24.0.0, SVG Export Plug-In . SVG Version: 6.00 Build 0)  -->
<svg version="1.1" id="Layer_1" xmlns="http://www.w3.org/2000/svg" xmlns:xlink="http://www.w3.org/1999/xlink" x="0px" y="0px"
	 viewBox="0 0 125 125" style="enable-background:new 0 0 125 125;" xml:space="preserve">
<style type="text/css">
	.st0{fill:#606161;}
	.st1{fill:#FFFFFF;}
</style>
<g>
	<g>
		<path class="st0" d="M103.53,125c-27.33,0-54.66,0-81.98,0c-4.28-1.52-6.01-4.54-5.99-9.07c0.08-30.41,0.04-60.82,0.04-91.23
			c0-0.61-0.01-1.22,0.01-1.83c0.16-3.76,3.52-7.14,7.28-7.25c2.44-0.07,4.88,0.01,7.32-0.03c0.9-0.01,1.22,0.32,1.21,1.21
			c-0.03,2.8,0.01,5.61-0.02,8.42c-0.01,1.59,0.01,3.18,0.36,4.73c1.22,5.46,5.91,9.06,11.9,9.07c12.6,0.03,25.21,0.02,37.81-0.01
			c1.09,0,2.2-0.13,3.26-0.38c5.37-1.25,8.88-5.87,8.95-11.74c0.04-3.21,0-6.42,0.01-9.64c0-1.64,0.01-1.64,1.6-1.65
			c2.07-0.01,4.15-0.01,6.22,0c4.68,0.02,7.98,3.31,7.98,8c0.01,31.18,0,62.37,0,93.55c0,0.65-0.02,1.29-0.18,1.94
			C108.52,122.18,106.43,123.98,103.53,125z M35.13,54.9c-1.53,0.1-2.73,0.77-3.34,2.23c-0.64,1.53-0.37,2.98,0.78,4.17
			c2.35,2.41,4.75,4.78,7.14,7.17c2.31,2.3,4.31,2.3,6.61,0c4.8-4.79,9.6-9.59,14.39-14.39c0.34-0.34,0.69-0.69,0.97-1.09
			c1.64-2.38,0.19-5.55-2.69-5.86c-1.41-0.15-2.49,0.48-3.46,1.45c-3.84,3.86-7.71,7.69-11.53,11.56c-0.74,0.75-1.24,0.8-1.97,0.01
			c-1.27-1.37-2.64-2.65-3.96-3.97C37.26,55.37,36.3,54.92,35.13,54.9z M35.11,86.14c-1.39,0.06-2.61,0.68-3.26,2.13
			c-0.71,1.57-0.45,3.05,0.74,4.28c2.35,2.42,4.75,4.79,7.14,7.17c2.3,2.3,4.3,2.3,6.61-0.01c4.8-4.79,9.6-9.59,14.39-14.39
			c0.34-0.34,0.69-0.69,0.97-1.09c1.66-2.42,0.11-5.67-2.82-5.87c-1.36-0.1-2.4,0.53-3.34,1.47C51.69,83.68,47.82,87.5,44,91.38
			c-0.75,0.76-1.24,0.79-1.97,0c-1.27-1.37-2.64-2.65-3.96-3.97C37.29,86.63,36.37,86.17,35.11,86.14z M81.93,62.44
			c2.56,0,5.12,0.04,7.68-0.01c2.28-0.05,4-1.72,4.03-3.76c0.02-2.03-1.71-3.79-3.97-3.81c-5.08-0.06-10.16-0.05-15.24,0
			c-1.72,0.02-3.06,0.81-3.69,2.5c-0.93,2.5,0.89,4.99,3.76,5.07C76.97,62.49,79.45,62.44,81.93,62.44z M81.97,93.67
			c2.56,0,5.12,0.05,7.68-0.01c2.27-0.06,4-1.77,3.99-3.8c-0.01-2.04-1.74-3.76-4.01-3.78c-5.04-0.05-10.08-0.04-15.12,0
			c-1.72,0.01-3.08,0.76-3.74,2.43c-1,2.53,0.84,5.08,3.76,5.15C77.01,93.72,79.49,93.67,81.97,93.67z"/>
		<path class="st0" d="M62.49,31.4c-6.34,0-12.68,0.01-19.02,0c-2.9,0-4.45-1.54-4.45-4.43c-0.01-4.92-0.01-9.84,0-14.75
			c0-2.92,1.51-4.42,4.44-4.43c2.19-0.01,4.39-0.03,6.58,0.01c0.88,0.02,1.38-0.24,1.8-1.07c2.2-4.32,5.71-6.71,10.6-6.73
			c5-0.03,8.57,2.38,10.81,6.8c0.36,0.72,0.8,1.01,1.6,1c2.36-0.04,4.71-0.03,7.07-0.01c2.48,0.02,4.11,1.65,4.12,4.14
			c0.02,5.08,0.02,10.16,0,15.24c-0.01,2.65-1.6,4.21-4.29,4.21C75.34,31.41,68.91,31.4,62.49,31.4z"/>
	</g>
</g>
</svg>
