<?xml version="1.0" encoding="utf-8"?>
<!-- Generator: Adobe Illustrator 24.0.0, SVG Export Plug-In . SVG Version: 6.00 Build 0)  -->
<svg version="1.1" id="Layer_1" xmlns="http://www.w3.org/2000/svg" xmlns:xlink="http://www.w3.org/1999/xlink" x="0px" y="0px"
	 viewBox="0 0 125 125" style="enable-background:new 0 0 125 125;" xml:space="preserve">
<style type="text/css">
	.st0{fill:#606161;}
	.st1{fill:#FFFFFF;}
</style>
<path class="st0" d="M81.91,62.64l39.1-39.1c5.32-5.32,5.32-13.95,0-19.27c-5.32-5.32-13.95-5.32-19.27,0l-39.1,39.1l-39.1-39.1
	c-5.32-5.32-13.95-5.32-19.27,0c-5.32,5.32-5.32,13.95,0,19.27l39.1,39.1l-39.1,39.1c-5.32,5.32-5.32,13.95,0,19.27
	c2.66,2.66,6.15,3.99,9.63,3.99s6.97-1.33,9.63-3.99l39.1-39.1l39.1,39.1c2.66,2.66,6.15,3.99,9.63,3.99c3.49,0,6.97-1.33,9.63-3.99
	c5.32-5.32,5.32-13.95,0-19.27L81.91,62.64z"/>
</svg>
