<?xml version="1.0" encoding="utf-8"?>
<!-- Generator: Adobe Illustrator 24.0.0, SVG Export Plug-In . SVG Version: 6.00 Build 0)  -->
<svg version="1.1" id="Layer_1" xmlns="http://www.w3.org/2000/svg" xmlns:xlink="http://www.w3.org/1999/xlink" x="0px" y="0px"
	 viewBox="0 0 125 125" style="enable-background:new 0 0 125 125;" xml:space="preserve">
<style type="text/css">
	.st0{fill:#606161;}
	.st1{fill:#FFFFFF;}
</style>
<g>
	<g>
		<path class="st0" d="M5.17,0C5.15,1.79,5.11,3.58,5.1,5.37c-0.01,3.67,0.02,7.33-0.02,11c-0.01,0.94,0.31,1.38,1.27,1.29
			c0.28-0.03,0.57,0,0.86,0c36.86,0,73.72,0,110.58,0c0.37,0,0.73-0.02,1.1,0c0.73,0.02,1.02-0.33,1.02-1.04
			c-0.03-5.54-0.05-11.08-0.08-16.62C81.62,0,43.4,0,5.17,0z"/>
		<path class="st0" d="M113.7,25.13c-0.29-0.02-0.57,0-0.86,0c-16.78,0-33.56,0-50.34,0c-16.99,0-33.97,0-50.95,0.01
			c-0.39,0-0.91-0.19-1.13,0.2c-0.22,0.39,0.26,0.63,0.5,0.88C23.57,40,36.23,53.79,48.92,67.55c1.21,1.31,1.79,2.68,1.78,4.49
			c-0.05,17.16-0.03,34.31-0.02,51.47c0,0.5-0.28,1.22,0.27,1.44c0.52,0.21,0.89-0.45,1.28-0.78c7.02-5.97,14.02-11.97,21.06-17.92
			c0.76-0.64,1.06-1.32,1.06-2.3c-0.03-10.8,0-21.6-0.03-32.4c0-1.39,0.44-2.53,1.37-3.54c2.72-2.93,5.41-5.88,8.12-8.82
			c10.1-10.99,20.21-21.97,30.3-32.96c0.23-0.25,0.69-0.47,0.49-0.89C114.44,25,114.01,25.15,113.7,25.13z"/>
	</g>
</g>
</svg>
