<?xml version="1.0" encoding="utf-8"?>
<!-- Generator: Adobe Illustrator 24.0.0, SVG Export Plug-In . SVG Version: 6.00 Build 0)  -->
<svg version="1.1" id="Layer_1" xmlns="http://www.w3.org/2000/svg" xmlns:xlink="http://www.w3.org/1999/xlink" x="0px" y="0px"
	 viewBox="0 0 120 120" style="enable-background:new 0 0 120 120;" xml:space="preserve">
<style type="text/css">
	.st0{fill:url(#SVGID_1_);}
	.st1{fill:url(#SVGID_2_);}
	.st2{fill:url(#SVGID_3_);}
	.st3{fill:url(#SVGID_4_);}
	.st4{fill:url(#SVGID_5_);}
	.st5{fill:url(#SVGID_6_);}
	.st6{fill:url(#SVGID_7_);}
	.st7{fill:url(#SVGID_8_);}
	.st8{fill:url(#SVGID_9_);}
	.st9{fill:url(#SVGID_10_);}
	.st10{fill:url(#SVGID_11_);}
	.st11{fill:url(#SVGID_12_);}
	.st12{fill:url(#SVGID_13_);}
	.st13{fill:url(#SVGID_14_);}
	.st14{fill:url(#SVGID_15_);}
	.st15{fill:url(#SVGID_16_);}
	.st16{fill:url(#SVGID_17_);}
	.st17{fill:url(#SVGID_18_);}
	.st18{fill:url(#SVGID_19_);}
	.st19{fill:url(#SVGID_20_);}
	.st20{fill:url(#SVGID_21_);}
	.st21{fill:url(#SVGID_22_);}
	.st22{fill:url(#SVGID_23_);}
	.st23{fill:url(#SVGID_24_);}
	.st24{fill:url(#SVGID_25_);}
	.st25{fill:url(#SVGID_26_);}
	.st26{fill:url(#SVGID_27_);}
	.st27{fill:url(#SVGID_28_);}
	.st28{fill:url(#SVGID_29_);}
	.st29{fill:url(#SVGID_30_);}
	.st30{fill:url(#SVGID_31_);}
	.st31{fill:url(#SVGID_32_);}
	.st32{fill:url(#SVGID_33_);}
	.st33{fill:url(#SVGID_34_);}
	.st34{fill:url(#SVGID_35_);}
	.st35{fill:url(#SVGID_36_);}
	.st36{fill:url(#SVGID_37_);}
	.st37{fill:url(#SVGID_38_);}
	.st38{fill:url(#SVGID_39_);}
	.st39{fill:url(#SVGID_40_);}
	.st40{fill:url(#SVGID_41_);}
	.st41{fill:url(#SVGID_42_);}
	.st42{fill:url(#SVGID_43_);}
	.st43{fill:url(#SVGID_44_);}
	.st44{fill:url(#SVGID_45_);}
	.st45{fill:url(#SVGID_46_);}
	.st46{fill:url(#SVGID_47_);}
	.st47{fill:url(#SVGID_48_);}
	.st48{fill:url(#SVGID_49_);}
	.st49{fill:url(#SVGID_50_);}
	.st50{fill:url(#SVGID_51_);}
	.st51{fill:url(#SVGID_52_);}
	.st52{fill:url(#SVGID_53_);}
	.st53{fill:#606060;}
</style>
<g>
	<path class="st53" d="M0.14,49.97c0.76-2.89,2.93-4.36,5.44-5.55c2.01-0.95,1.98-0.99,0.99-2.97c-0.62-1.25-1.41-2.44-1.58-3.87
		c-0.31-2.54,0.46-4.7,2.38-6.4c7.97-7.05,16.9-8.64,26.81-4.73c0.5,0.2,0.94,0.56,1.59,0.55c-0.17-2.07-0.41-4.1-0.18-6.16
		c1.03-9.01,5.5-15.67,13.57-19.82c2.71-1.39,5.66-0.77,7.87,1.36c0.81,0.79,1.62,1.58,2.4,2.4c0.42,0.44,0.75,0.43,1.17-0.01
		c0.78-0.82,1.58-1.61,2.4-2.4c2.24-2.15,5.23-2.72,7.98-1.31c7.26,3.74,11.63,9.69,13.19,17.7c0.53,2.72,0.48,5.47,0.03,8.4
		c2.34-1.04,4.53-1.94,6.88-2.34c8.47-1.45,15.82,0.82,21.99,6.77c2.22,2.14,2.66,5.2,1.34,7.97c-0.5,1.06-1.03,2.1-1.58,3.13
		c-0.28,0.53-0.18,0.84,0.36,1.11c1.01,0.5,2.01,1.03,3.01,1.56c2.87,1.53,4.23,4.31,3.7,7.52c-1.67,10.09-9.48,18.11-19.54,20.06
		c-0.34,0.07-0.69,0.08-1.05,0.4c1.51,1.61,2.91,3.27,3.96,5.18c4.26,7.73,4.51,15.57,0.59,23.5c-1.36,2.76-4.1,4.12-7.16,3.71
		c-0.96-0.13-1.93-0.26-2.88-0.45c-0.91-0.18-1.51-0.03-1.58,1.06c-0.04,0.62-0.25,1.22-0.3,1.84c-0.32,3.95-2.73,6.82-7.68,7.07
		c-10.41,0.52-18.34-3.65-23.68-12.65c-0.15-0.26-0.2-0.68-0.55-0.68c-0.36,0-0.4,0.43-0.55,0.68c-5.37,9.04-13.34,13.22-23.8,12.63
		c-4.61-0.26-6.83-2.43-7.56-7.05c-0.1-0.62-0.27-1.22-0.3-1.84c-0.07-1.09-0.66-1.21-1.58-1.07c-1.64,0.25-3.26,0.77-4.97,0.46
		c-2.35-0.43-4.05-1.69-5.14-3.81c-4.65-9.07-3.12-20.18,3.83-27.73c0.25-0.28,0.62-0.48,0.7-0.91c-0.44-0.42-1.03-0.32-1.54-0.45
		c-9.84-2.5-16.05-8.66-18.65-18.47c-0.1-0.38-0.2-0.75-0.31-1.12C0.14,52.15,0.14,51.06,0.14,49.97z M101.6,90.88
		c0.01-8.14-4.76-15.43-12.42-18.24c-6.54-2.4-13.24-4.37-19.87-6.54c-0.51-0.17-0.89-0.14-1.23,0.3c-0.35,0.45-0.14,0.79,0.13,1.15
		c1.67,2.3,3.35,4.6,5.01,6.91c0.36,0.5,0.72,0.7,1.37,0.56c1.25-0.27,2.48-0.06,3.67,0.37c3.32,1.21,5.24,4.84,4.4,8.32
		c-0.84,3.5-4.18,5.85-7.68,5.41c-5-0.62-7.77-5.58-5.66-10.17c0.24-0.52,0.41-0.94,0-1.49c-1.7-2.28-3.37-4.59-5.02-6.9
		c-0.4-0.56-0.82-0.69-1.49-0.48c-1.83,0.57-3.69,0.6-5.52,0.02c-0.78-0.25-1.22-0.05-1.66,0.58c-1.53,2.16-3.07,4.32-4.67,6.43
		c-0.52,0.68-0.55,1.21-0.19,1.99c1.22,2.64,0.93,5.19-0.88,7.46c-1.78,2.23-4.17,3.05-6.98,2.52c-3.78-0.71-6.3-4.48-5.59-8.32
		c0.68-3.7,4.32-6.31,8.02-5.71c0.69,0.11,1.09-0.05,1.48-0.59c1.63-2.28,3.29-4.55,4.94-6.82c0.28-0.38,0.58-0.73,0.18-1.24
		c-0.4-0.51-0.83-0.43-1.35-0.26c-6.4,2.1-12.85,4.07-19.21,6.29C20.44,76.25,15.3,88.84,20.29,99.26c0.7,1.47,1.34,1.78,2.99,1.51
		c1.81-0.29,3.61-0.58,5.42-0.83c2.21-0.3,3.19,0.47,3.52,2.66c0.28,1.89,0.62,3.76,0.9,5.65c0.18,1.23,0.91,1.87,2.1,1.97
		c1.51,0.12,3,0.25,4.54,0.1c8.36-0.83,15.17-6.65,17.18-14.79c0.68-2.75,0.66-5.56,0.64-8.36c-0.01-0.72,0.04-1.41,0.54-1.98
		c0.71-0.81,1.61-1.11,2.63-0.76c1.07,0.36,1.66,1.15,1.66,2.29c0.01,2.45-0.05,4.91,0.34,7.35c1.58,9.75,10.61,17.31,21.23,16.23
		c2.29-0.23,2.76-0.65,3.09-2.97c0.25-1.77,0.51-3.55,0.85-5.3c0.33-1.65,1.4-2.36,3.05-2.13c1.93,0.28,3.85,0.57,5.77,0.88
		c1.64,0.27,2.29-0.03,2.98-1.53C100.97,96.6,101.67,93.82,101.6,90.88z M62.43,45.62c0,1.32-0.01,2.65,0,3.97
		c0,0.53-0.12,1.08,0.61,1.34c0.8,0.28,1.04-0.28,1.37-0.74c3.74-5.14,7.47-10.27,11.2-15.41c3.13-4.32,4.51-9.1,3.75-14.43
		c-0.93-6.49-4.31-11.33-10-14.55c-1.43-0.81-2.19-0.67-3.34,0.47c-1.27,1.26-2.53,2.54-3.81,3.8c-1.61,1.6-2.82,1.61-4.41,0.04
		c-1.3-1.29-2.59-2.6-3.89-3.88c-1.07-1.05-1.84-1.19-3.15-0.5c-0.69,0.36-1.36,0.76-2,1.21c-8.86,6.3-11.05,18.18-4.86,27.12
		c3.81,5.51,7.85,10.87,11.78,16.29c0.3,0.42,0.56,0.82,1.22,0.6c0.65-0.21,0.67-0.66,0.66-1.19c-0.01-2.42-0.07-4.83,0.02-7.25
		c0.05-1.28-0.23-2.07-1.46-2.79c-2.92-1.71-4.03-5.26-2.88-8.36c1.17-3.16,4.23-5.05,7.55-4.65c3.15,0.38,5.62,2.69,6.2,5.82
		c0.55,2.94-0.9,6.01-3.63,7.47c-0.72,0.39-1.01,0.83-0.98,1.64C62.48,42.97,62.43,44.3,62.43,45.62z M95.67,29.35
		c-6.46,0.07-11.72,2.64-15.61,7.78c-3.99,5.28-7.82,10.69-11.7,16.05c-0.28,0.39-0.71,0.75-0.31,1.34
		c0.42,0.61,0.92,0.44,1.45,0.27c2.37-0.77,4.72-1.6,7.11-2.3c1.09-0.32,1.63-0.82,1.89-2c0.87-3.86,4.81-6.18,8.6-5.22
		c3.82,0.96,6.17,4.86,5.22,8.65c-1.33,5.28-7.81,7.2-11.78,3.46c-0.55-0.52-0.99-0.69-1.74-0.44c-2.54,0.87-5.11,1.67-7.66,2.5
		c-0.51,0.17-1.07,0.29-1.05,1.04c0.01,0.67,0.49,0.82,0.98,0.98c6.48,2.1,12.92,4.35,19.46,6.27c10.96,3.21,22.49-4.13,24.4-15.36
		c0.26-1.52-0.02-2.12-1.39-2.83c-1.73-0.89-3.49-1.74-5.2-2.66c-1.67-0.89-2.05-2.1-1.22-3.79c0.86-1.75,1.76-3.47,2.63-5.22
		c0.71-1.44,0.62-2.02-0.53-3.11C105.42,31.18,100.92,29.34,95.67,29.35z M24.29,29.36c-5.03-0.02-9.38,1.72-13.1,5.05
		c-1.63,1.45-1.69,1.92-0.72,3.84c0.79,1.57,1.59,3.12,2.37,4.69c0.93,1.88,0.56,3.05-1.31,4.03c-1.72,0.91-3.48,1.76-5.21,2.65
		c-1.06,0.55-1.47,1.37-1.26,2.6c1.9,11.41,13.6,18.82,24.63,15.47c6.44-1.96,12.82-4.13,19.23-6.21c0.48-0.16,0.98-0.28,1.01-0.95
		c0.03-0.74-0.49-0.89-1.02-1.06c-2.59-0.84-5.19-1.66-7.77-2.54c-0.66-0.22-1.05-0.08-1.52,0.41c-1.21,1.24-2.73,1.94-4.47,2.04
		c-3.95,0.24-7.22-2.54-7.66-6.47c-0.39-3.5,2.32-7.09,5.8-7.66c4-0.66,7.52,1.72,8.32,5.69c0.15,0.75,0.49,1.13,1.22,1.36
		c2.56,0.8,5.11,1.66,7.66,2.51c0.52,0.17,1.02,0.38,1.46-0.22c0.47-0.63-0.01-1.02-0.31-1.44c-3.84-5.3-7.63-10.64-11.56-15.87
		C36.14,32.04,30.84,29.41,24.29,29.36z M59.96,55.42c-2.78,0.02-5.03,2.3-5.02,5.1c0.01,2.78,2.3,5.05,5.07,5.05
		c2.83,0,5.12-2.33,5.08-5.17C65.05,57.62,62.76,55.39,59.96,55.42z M87.55,52.18c-0.01-1.27-0.96-2.18-2.23-2.14
		c-1.21,0.03-2.09,0.96-2.09,2.18c0.01,1.26,0.96,2.17,2.24,2.14C86.69,54.32,87.56,53.41,87.55,52.18z M44.34,79.96
		c-1.21,0-2.17,0.92-2.19,2.09c-0.02,1.19,1.02,2.24,2.21,2.23c1.19-0.01,2.22-1.06,2.19-2.24C46.51,80.86,45.55,79.95,44.34,79.96z
		 M32.47,52.15c-0.04,1.25,0.82,2.19,2.03,2.23c1.26,0.04,2.23-0.81,2.29-1.99c0.06-1.24-0.9-2.3-2.11-2.33
		C33.49,50.02,32.5,50.97,32.47,52.15z M73.6,82.03c-0.01,1.28,0.94,2.26,2.18,2.24c1.12-0.02,2.14-1.07,2.15-2.21
		c0.01-1.17-0.95-2.1-2.17-2.12C74.48,79.92,73.62,80.77,73.6,82.03z M62.1,33.79c0-1.24-0.91-2.19-2.09-2.2
		c-1.18-0.01-2.27,1.08-2.24,2.24c0.03,1.17,1,2.08,2.23,2.08C61.29,35.91,62.11,35.08,62.1,33.79z"/>
	<path class="st53" d="M59.64,68.88c-0.01,0.78-0.62,1.37-1.4,1.36c-0.78-0.02-1.35-0.64-1.33-1.43c0.02-0.75,0.62-1.33,1.37-1.32
		C59.05,67.49,59.65,68.1,59.64,68.88z"/>
</g>
</svg>
