<?xml version="1.0" encoding="utf-8"?>
<!-- Generator: Adobe Illustrator 24.0.0, SVG Export Plug-In . SVG Version: 6.00 Build 0)  -->
<svg version="1.1" id="Layer_1" xmlns="http://www.w3.org/2000/svg" xmlns:xlink="http://www.w3.org/1999/xlink" x="0px" y="0px"
	 viewBox="0 0 120 120" style="enable-background:new 0 0 120 120;" xml:space="preserve">
<style type="text/css">
	.st0{fill:url(#SVGID_1_);}
	.st1{fill:url(#SVGID_2_);}
	.st2{fill:url(#SVGID_3_);}
	.st3{fill:url(#SVGID_4_);}
	.st4{fill:url(#SVGID_5_);}
	.st5{fill:url(#SVGID_6_);}
	.st6{fill:url(#SVGID_7_);}
	.st7{fill:url(#SVGID_8_);}
	.st8{fill:url(#SVGID_9_);}
	.st9{fill:url(#SVGID_10_);}
	.st10{fill:url(#SVGID_11_);}
	.st11{fill:url(#SVGID_12_);}
	.st12{fill:url(#SVGID_13_);}
	.st13{fill:url(#SVGID_14_);}
	.st14{fill:url(#SVGID_15_);}
	.st15{fill:url(#SVGID_16_);}
	.st16{fill:url(#SVGID_17_);}
	.st17{fill:url(#SVGID_18_);}
	.st18{fill:url(#SVGID_19_);}
	.st19{fill:url(#SVGID_20_);}
	.st20{fill:url(#SVGID_21_);}
	.st21{fill:url(#SVGID_22_);}
	.st22{fill:url(#SVGID_23_);}
	.st23{fill:url(#SVGID_24_);}
	.st24{fill:url(#SVGID_25_);}
	.st25{fill:url(#SVGID_26_);}
	.st26{fill:url(#SVGID_27_);}
	.st27{fill:url(#SVGID_28_);}
	.st28{fill:url(#SVGID_29_);}
	.st29{fill:url(#SVGID_30_);}
	.st30{fill:url(#SVGID_31_);}
	.st31{fill:url(#SVGID_32_);}
	.st32{fill:url(#SVGID_33_);}
	.st33{fill:url(#SVGID_34_);}
	.st34{fill:url(#SVGID_35_);}
	.st35{fill:url(#SVGID_36_);}
	.st36{fill:url(#SVGID_37_);}
	.st37{fill:url(#SVGID_38_);}
	.st38{fill:url(#SVGID_39_);}
	.st39{fill:url(#SVGID_40_);}
	.st40{fill:url(#SVGID_41_);}
	.st41{fill:url(#SVGID_42_);}
	.st42{fill:url(#SVGID_43_);}
	.st43{fill:url(#SVGID_44_);}
	.st44{fill:url(#SVGID_45_);}
	.st45{fill:url(#SVGID_46_);}
	.st46{fill:url(#SVGID_47_);}
	.st47{fill:url(#SVGID_48_);}
	.st48{fill:url(#SVGID_49_);}
	.st49{fill:url(#SVGID_50_);}
	.st50{fill:url(#SVGID_51_);}
	.st51{fill:url(#SVGID_52_);}
	.st52{fill:url(#SVGID_53_);}
	.st53{fill:url(#SVGID_54_);}
</style>
<g>
	<path d="M58.4,97.15c-2.2-0.43-4.18-1.32-5.82-2.88c-0.81-0.77-1.5-1.64-2.04-2.62c-0.37-0.67-0.31-0.77,0.47-0.77
		c4.08,0,8.16,0,12.25,0c1.84,0,3.67-0.01,5.51,0.01c0.3,0,0.7-0.15,0.86,0.17c0.14,0.29-0.16,0.58-0.31,0.84
		c-1.69,2.76-4.13,4.48-7.3,5.14c-0.14,0.03-0.28,0.07-0.42,0.11C60.53,97.15,59.47,97.15,58.4,97.15z"/>
	<path d="M59.92,87.92c-9.64,0-19.28,0-28.92,0c-0.54,0-1.06-0.02-1.49-0.42c-0.59-0.56-0.68-1.35-0.18-2.18
		c1.66-2.78,3.32-5.56,4.99-8.33c2.63-4.34,3.98-9.03,3.92-14.12c-0.03-2.32-0.01-4.64,0-6.96c0.01-9.74,5.5-17.65,14.65-21.02
		c0.67-0.25,0.86-0.57,0.86-1.25c0.01-1.91-0.21-3.82,0.12-5.71c0.55-3.2,3.41-5.29,6.83-5.06c2.94,0.2,5.48,2.92,5.57,5.99
		c0.04,1.64,0.04,3.29,0,4.93c-0.01,0.58,0.18,0.84,0.73,1.04c6.82,2.47,11.4,7.15,13.73,14.02c0.73,2.17,1.01,4.42,1.03,6.7
		c0.02,2.63,0,5.27,0.01,7.9c0.01,4.78,1.33,9.19,3.77,13.28c1.69,2.84,3.4,5.68,5.11,8.51c0.38,0.63,0.5,1.25,0.11,1.91
		c-0.37,0.61-0.94,0.76-1.61,0.76c-5.7-0.01-11.4-0.01-17.11-0.01C67.99,87.92,63.96,87.92,59.92,87.92z"/>
</g>
</svg>
