<?xml version="1.0" encoding="utf-8"?>
<!-- Generator: Adobe Illustrator 24.0.0, SVG Export Plug-In . SVG Version: 6.00 Build 0)  -->
<svg version="1.1" id="Layer_1" xmlns="http://www.w3.org/2000/svg" xmlns:xlink="http://www.w3.org/1999/xlink" x="0px" y="0px"
	 viewBox="0 0 120 120" style="enable-background:new 0 0 120 120;" xml:space="preserve">
<style type="text/css">
	.st0{fill:url(#SVGID_1_);}
	.st1{fill:url(#SVGID_2_);}
	.st2{fill:url(#SVGID_3_);}
	.st3{fill:url(#SVGID_4_);}
	.st4{fill:url(#SVGID_5_);}
	.st5{fill:url(#SVGID_6_);}
	.st6{fill:url(#SVGID_7_);}
	.st7{fill:url(#SVGID_8_);}
	.st8{fill:url(#SVGID_9_);}
	.st9{fill:url(#SVGID_10_);}
	.st10{fill:url(#SVGID_11_);}
	.st11{fill:url(#SVGID_12_);}
	.st12{fill:url(#SVGID_13_);}
	.st13{fill:url(#SVGID_14_);}
	.st14{fill:url(#SVGID_15_);}
	.st15{fill:url(#SVGID_16_);}
	.st16{fill:url(#SVGID_17_);}
	.st17{fill:url(#SVGID_18_);}
	.st18{fill:url(#SVGID_19_);}
	.st19{fill:url(#SVGID_20_);}
	.st20{fill:url(#SVGID_21_);}
	.st21{fill:url(#SVGID_22_);}
	.st22{fill:url(#SVGID_23_);}
	.st23{fill:url(#SVGID_24_);}
	.st24{fill:url(#SVGID_25_);}
	.st25{fill:url(#SVGID_26_);}
	.st26{fill:url(#SVGID_27_);}
	.st27{fill:url(#SVGID_28_);}
	.st28{fill:url(#SVGID_29_);}
	.st29{fill:url(#SVGID_30_);}
	.st30{fill:url(#SVGID_31_);}
	.st31{fill:url(#SVGID_32_);}
	.st32{fill:url(#SVGID_33_);}
	.st33{fill:url(#SVGID_34_);}
	.st34{fill:url(#SVGID_35_);}
	.st35{fill:url(#SVGID_36_);}
	.st36{fill:url(#SVGID_37_);}
	.st37{fill:url(#SVGID_38_);}
	.st38{fill:url(#SVGID_39_);}
	.st39{fill:url(#SVGID_40_);}
	.st40{fill:url(#SVGID_41_);}
	.st41{fill:url(#SVGID_42_);}
	.st42{fill:url(#SVGID_43_);}
	.st43{fill:url(#SVGID_44_);}
	.st44{fill:url(#SVGID_45_);}
	.st45{fill:url(#SVGID_46_);}
	.st46{fill:url(#SVGID_47_);}
	.st47{fill:url(#SVGID_48_);}
	.st48{fill:url(#SVGID_49_);}
	.st49{fill:url(#SVGID_50_);}
	.st50{fill:url(#SVGID_51_);}
	.st51{fill:url(#SVGID_52_);}
	.st52{fill:url(#SVGID_53_);}
	.st53{fill:#606060;}
</style>
<g>
	<g>
		<linearGradient id="SVGID_1_" gradientUnits="userSpaceOnUse" x1="5.659" y1="62.6821" x2="105.8329" y2="57.9864">
			<stop  offset="0" style="stop-color:#1FC9DB"/>
			<stop  offset="1" style="stop-color:#1FE8CB"/>
		</linearGradient>
		<path class="st0" d="M60,120C26.99,120,0.13,93.14,0.13,60.13S26.99,0.27,60,0.27s59.87,26.86,59.87,59.87S93.01,120,60,120z
			 M60,3.29c-31.35,0-56.85,25.5-56.85,56.85s25.5,56.85,56.85,56.85s56.85-25.5,56.85-56.85S91.35,3.29,60,3.29z"/>
	</g>
	<g>
		<linearGradient id="SVGID_2_" gradientUnits="userSpaceOnUse" x1="5.1131" y1="51.0361" x2="105.287" y2="46.3404">
			<stop  offset="0" style="stop-color:#1FC9DB"/>
			<stop  offset="1" style="stop-color:#1FE8CB"/>
		</linearGradient>
		<path class="st1" d="M89.53,40.05c-2.24-6.66-9.45-10.24-16.11-8c-0.33,0.11-0.66,0.24-0.97,0.38c0.02-0.34,0.03-0.69,0.02-1.04
			c-0.21-7.02-6.07-12.55-13.09-12.34c-6.76,0.2-12.12,5.63-12.34,12.3c-6.37-1.97-13.26,1.35-15.64,7.67
			c-2.48,6.57,0.85,13.91,7.42,16.38c0.33,0.12,0.66,0.23,0.99,0.32c-0.23,0.26-0.46,0.52-0.67,0.8
			c-4.28,5.57-3.24,13.55,2.33,17.83c5.57,4.28,13.55,3.24,17.83-2.33c0.21-0.28,0.41-0.56,0.6-0.85c0.18,0.3,0.36,0.59,0.57,0.87
			c4.08,5.72,12.02,7.04,17.74,2.96c5.72-4.08,7.04-12.02,2.96-17.74c-0.2-0.29-0.42-0.56-0.64-0.82c0.33-0.08,0.67-0.18,1-0.29
			C88.19,53.92,91.77,46.71,89.53,40.05z M63.33,58.47c-4.71,1.58-9.8-0.95-11.39-5.65c-1.58-4.71,0.95-9.8,5.65-11.39
			c4.71-1.58,9.8,0.95,11.39,5.65C70.56,51.78,68.03,56.88,63.33,58.47z"/>
		<linearGradient id="SVGID_3_" gradientUnits="userSpaceOnUse" x1="7.5607" y1="103.2512" x2="107.7346" y2="98.5555">
			<stop  offset="0" style="stop-color:#1FC9DB"/>
			<stop  offset="1" style="stop-color:#1FE8CB"/>
		</linearGradient>
		<path class="st2" d="M18.14,91.09h84.74c0,0-12.69,21.31-43.13,21.31S18.14,91.09,18.14,91.09z"/>
		<linearGradient id="SVGID_4_" gradientUnits="userSpaceOnUse" x1="6.6948" y1="84.7786" x2="106.8687" y2="80.0829">
			<stop  offset="0" style="stop-color:#1FC9DB"/>
			<stop  offset="1" style="stop-color:#1FE8CB"/>
		</linearGradient>
		<polygon class="st3" points="59.75,74.85 56.19,77.9 56.19,89.57 63.3,89.57 63.3,77.9 		"/>
	</g>
</g>
</svg>
