<?xml version="1.0" encoding="iso-8859-1"?>
<!-- Generator: Adobe Illustrator 19.0.0, SVG Export Plug-In . SVG Version: 6.00 Build 0)  -->
<svg version="1.1" id="Capa_1" xmlns="http://www.w3.org/2000/svg" xmlns:xlink="http://www.w3.org/1999/xlink" x="0px" y="0px"
	 viewBox="0 0 512.007 512.007" style="enable-background:new 0 0 512.007 512.007;" xml:space="preserve">
<circle style="fill:#41B4E6;" cx="256.003" cy="256.003" r="256.003"/>
<path style="fill:#0091C8;" d="M396.054,115.946c-12.916-12.916-30.759-20.905-50.468-20.905H166.415
	c-39.418,0-71.373,31.954-71.373,71.373v179.171c0,19.709,7.989,37.552,20.905,50.468l114.698,114.698
	c8.342,0.82,16.798,1.249,25.356,1.249c141.385,0,255.999-114.615,256-256c0-8.557-0.429-17.014-1.249-25.356L396.054,115.946z"/>
<path style="fill:#6E64C3;" d="M345.585,416.958H166.415c-39.418,0-71.373-31.954-71.373-71.373V166.415
	c0-39.418,31.954-71.373,71.373-71.373h179.171c39.418,0,71.373,31.954,71.373,71.373v179.171
	C416.958,385.004,385.004,416.958,345.585,416.958z"/>
<g>
	<path style="fill:#FFFFFF;" d="M233.688,227.433c2.467-1.812,4.108-4.533,4.562-7.561c0.454-3.027-0.32-6.11-2.148-8.564
		l-12.124-16.289c-1.423-1.912-3.557-3.166-5.919-3.48c-2.362-0.314-4.753,0.337-6.625,1.81c-2.235,1.759-4.738,3.723-7.106,5.567
		c-5.829,4.54-8.029,12.326-5.449,19.249c14.23,38.186,44.146,68.469,82.084,83.187c7.803,3.027,16.659-0.104,20.803-7.375
		l4.658-8.176c2.289-4.017,1.09-9.12-2.747-11.698l-14.836-9.968c-2.593-1.742-5.783-2.352-8.836-1.694
		c-3.053,0.659-5.713,2.53-7.356,5.188c-0.485,0.784-0.954,1.546-1.392,2.255c-0.611,0.991-1.597,1.693-2.733,1.946
		c-1.136,0.253-2.327,0.036-3.301-0.602c-14.224-9.315-26.376-21.487-35.665-35.73c-1.26-1.932-0.777-4.515,1.098-5.859
		C231.59,228.968,232.626,228.213,233.688,227.433z"/>
	<path style="fill:#FFFFFF;" d="M311.42,248.46c-2.45,0-4.436-1.987-4.436-4.436c0-29.2-23.756-52.956-52.956-52.956
		c-2.45,0-4.436-1.987-4.436-4.436c0-2.45,1.987-4.436,4.436-4.436c34.092,0,61.828,27.737,61.828,61.828
		C315.856,246.474,313.871,248.46,311.42,248.46z"/>
	<path style="fill:#FFFFFF;" d="M297.519,248.46c-2.45,0-4.436-1.987-4.436-4.436c0-21.535-17.52-39.054-39.054-39.054
		c-2.45,0-4.436-1.987-4.436-4.436c0-2.45,1.987-4.436,4.436-4.436c26.427,0,47.927,21.5,47.927,47.927
		C301.955,246.474,299.969,248.46,297.519,248.46z"/>
	<path style="fill:#FFFFFF;" d="M283.864,248.46c-2.45,0-4.436-1.987-4.436-4.436c0-14.005-11.395-25.4-25.4-25.4
		c-2.45,0-4.436-1.987-4.436-4.436c0-2.45,1.987-4.436,4.436-4.436c18.898,0,34.273,15.375,34.273,34.273
		C288.301,246.474,286.314,248.46,283.864,248.46z"/>
	<path style="fill:#FFFFFF;" d="M366.185,222.096c0-44.436-36.022-80.458-80.458-80.458h-56.964
		c-45.797,0-82.922,37.125-82.922,82.922v35.768c0,35.333,22.108,65.485,53.238,77.428v28.095c0,3.329,2.096,6.348,5.215,7.512
		c0.906,0.339,1.85,0.502,2.785,0.502c2.286,0,4.529-0.975,6.077-2.759l24.164-27.855h48.408c44.436,0,80.458-36.022,80.458-80.458
		V222.096z M347.454,262.793c0,34.036-27.69,61.726-61.726,61.726h-42.911l-33.065,38.45c-0.432,0.502-1.131,0.682-1.752,0.453
		c-0.621-0.23-1.034-0.822-1.034-1.485c0-8.191,0-26.592,0-41.234c-24.696-8.944-42.393-32.629-42.393-60.374v-35.768
		c0-35.395,28.796-64.191,64.191-64.191h56.965c34.036,0,61.726,27.69,61.726,61.726V262.793z"/>
</g>
<g>
</g>
<g>
</g>
<g>
</g>
<g>
</g>
<g>
</g>
<g>
</g>
<g>
</g>
<g>
</g>
<g>
</g>
<g>
</g>
<g>
</g>
<g>
</g>
<g>
</g>
<g>
</g>
<g>
</g>
</svg>
