<?xml version="1.0" encoding="utf-8"?>
<!-- Generator: Adobe Illustrator 24.0.0, SVG Export Plug-In . SVG Version: 6.00 Build 0)  -->
<svg version="1.1" id="Layer_1" xmlns="http://www.w3.org/2000/svg" xmlns:xlink="http://www.w3.org/1999/xlink" x="0px" y="0px"
	 viewBox="0 0 250.33 133.63" style="enable-background:new 0 0 250.33 133.63;" xml:space="preserve">
<style type="text/css">
	.st0{fill:#ffffff;}
</style>
<g>
	<g>
		<g>
			<path class="st0" d="M71.99,66.85V77.2l0.03,0.5v0.68c0.07,0.47,0.57,0.71,1.49,0.71l2.24,0.05l0.86-0.03l3.08-0.05
				c1.6,0,2.76-0.24,3.49-0.72c0.73-0.48,1.19-1.3,1.38-2.47c0.07-0.42,0.25-0.63,0.54-0.63c0.34,0,0.49,0.27,0.46,0.81l-0.16,2.59
				c-0.02,0.33-0.03,0.86-0.03,1.59c0,2.04,0.03,3.34,0.1,3.89c0.03,0.33,0.05,0.57,0.05,0.73c0,0.42-0.16,0.63-0.48,0.63
				c-0.34,0-0.61-0.43-0.8-1.28c-0.21-0.93-0.44-1.55-0.68-1.89c-0.24-0.33-0.65-0.57-1.23-0.71c-1.17-0.3-2.88-0.45-5.14-0.45
				c-2.09,0-3.44,0.04-4.06,0.13s-0.96,0.29-1.03,0.61c-0.09,0.33-0.13,0.86-0.13,1.58v9.76c0,1.39,0.37,2.49,1.1,3.32
				c0.73,0.82,1.72,1.24,2.96,1.24c0.59,0,0.9,0.17,0.92,0.51c0.03,0.39-0.23,0.59-0.79,0.59c-0.39,0-0.92-0.04-1.6-0.12
				C74,98.69,73.14,98.65,72,98.65l-1.81-0.03l-2.02,0.03c-0.44,0-1.03,0.03-1.78,0.1c-0.61,0.03-1.06,0.06-1.34,0.08
				c-0.51,0.02-0.76-0.14-0.76-0.46c0-0.27,0.27-0.47,0.81-0.59c1.12-0.24,1.88-0.72,2.28-1.42c0.4-0.7,0.6-1.91,0.6-3.62V69.11
				c0-1.66-0.27-2.94-0.81-3.83c-0.35-0.59-0.73-1-1.15-1.21c-0.42-0.21-1.14-0.36-2.17-0.45c-0.42-0.03-0.64-0.19-0.65-0.46
				c-0.04-0.44,0.31-0.67,1.05-0.67c0.23,0,0.77,0.04,1.62,0.13c1.55,0.16,4.18,0.24,7.88,0.24c3.3,0,5.42-0.03,6.36-0.08l3.64-0.18
				c1.57-0.07,2.58-0.15,3.04-0.24c0.33-0.07,0.62-0.1,0.86-0.1c0.38,0,0.58,0.2,0.58,0.6c0,0.21-0.04,0.5-0.13,0.87
				c-0.3,1.14-0.45,2.66-0.45,4.57c0,0.81-0.23,1.21-0.7,1.21c-0.27,0-0.42-0.22-0.46-0.65c-0.05-0.54-0.15-1.09-0.29-1.65
				c-0.23-0.89-0.51-1.46-0.85-1.72c-0.34-0.25-1.09-0.43-2.26-0.54l-3.08-0.31c-0.97-0.09-2.21-0.13-3.71-0.13
				c-1.95,0-3.16,0.13-3.63,0.38C72.22,65.15,71.99,65.8,71.99,66.85z"/>
			<path class="st0" d="M99.67,91.56l0.03,0.92c0,2.1,0.2,3.34,0.6,3.72c0.4,0.38,1.71,0.58,3.93,0.58c3.27,0,6.11-0.39,8.51-1.17
				c2.4-0.78,3.94-1.8,4.6-3.08c0.24-0.47,0.49-0.71,0.73-0.71c0.28,0,0.41,0.17,0.39,0.52c-0.07,1.15-0.64,2.41-1.7,3.78
				c-1.5,1.9-3.94,2.84-7.31,2.84c-0.56,0-1.21-0.03-1.94-0.08l-2.83-0.21c-1.66-0.12-3.42-0.18-5.27-0.18
				c-2.15,0-3.95,0.1-5.4,0.31c-0.61,0.09-1.1,0.14-1.47,0.16c-0.44,0.02-0.66-0.14-0.66-0.46c0-0.27,0.24-0.48,0.71-0.61
				c1.21-0.37,2.03-0.9,2.44-1.61c0.41-0.71,0.62-1.9,0.62-3.58l0.03-1.21V68.06c0-2.33-0.94-3.68-2.83-4.07l-1.18-0.24
				c-0.42-0.09-0.63-0.26-0.63-0.51c0-0.39,0.3-0.59,0.89-0.59c0.4,0,0.95,0.04,1.65,0.1c1.18,0.1,2.52,0.16,4,0.16
				c1.6,0,3.06-0.04,4.36-0.13c0.66-0.03,1.04-0.05,1.12-0.05c0.42,0,0.63,0.13,0.63,0.38c0,0.38-0.25,0.62-0.76,0.74l-0.92,0.21
				c-1.57,0.38-2.36,1.95-2.36,4.7V91.56z"/>
			<path class="st0" d="M139.05,62.16c5.46,0,9.95,1.69,13.45,5.06c3.5,3.38,5.25,7.7,5.25,12.97c0,5.58-1.76,10.16-5.29,13.74
				c-3.53,3.58-8.04,5.36-13.54,5.36c-5.64,0-10.2-1.71-13.68-5.13c-3.48-3.42-5.22-7.9-5.22-13.45c0-2.41,0.46-4.79,1.37-7.16
				c0.92-2.36,2.15-4.34,3.71-5.93c1.64-1.67,3.72-3.01,6.23-3.99C133.84,62.66,136.42,62.16,139.05,62.16z M137.36,63.87
				c-4.05,0-7.27,1.36-9.66,4.09c-2.38,2.73-3.58,6.4-3.58,11.02c0,5.28,1.52,9.74,4.57,13.36c3.05,3.63,6.79,5.44,11.23,5.44
				c4.05,0,7.4-1.48,10.04-4.43c2.64-2.95,3.96-6.7,3.96-11.23c0-5.21-1.58-9.56-4.74-13.03C146.02,65.6,142.08,63.87,137.36,63.87z
				"/>
			<path class="st0" d="M180.25,80.67l7.23,10.66l0.84,1.25c2.23,3.27,4.29,4.97,6.18,5.09l0.84,0.05c0.31,0.02,0.46,0.14,0.45,0.37
				c-0.02,0.27-0.41,0.51-1.17,0.72c-0.76,0.21-1.62,0.32-2.58,0.32c-1.57,0-2.98-0.43-4.23-1.3c-1.25-0.86-2.52-2.27-3.81-4.23
				l-6.52-9.95l-0.37-0.58c-0.42-0.72-1.1-1.07-2.04-1.07h-3.48L171,82.12c-0.21,0.12-0.31,0.4-0.31,0.84v8.2l0.03,1.05
				c0,1.51,0.07,2.54,0.22,3.09c0.15,0.55,0.5,1.05,1.06,1.48c0.75,0.6,1.91,0.97,3.48,1.13c0.63,0.07,0.95,0.26,0.97,0.59
				c0.03,0.34-0.25,0.51-0.86,0.51c-0.24,0-0.76-0.04-1.55-0.12c-0.72-0.08-1.82-0.12-3.33-0.12l-2.51-0.03l-1.36,0.03
				c-0.59,0-1.31,0.04-2.15,0.13c-0.68,0.07-1.15,0.1-1.41,0.1c-0.44,0-0.65-0.18-0.65-0.54c0-0.26,0.22-0.43,0.65-0.51
				c1.4-0.26,2.31-0.9,2.75-1.9c0.44-1.01,0.65-2.99,0.65-5.94V71.29l-0.05-2.73c0-2.73-0.95-4.25-2.85-4.56l-1.23-0.18
				c-0.56-0.1-0.84-0.31-0.84-0.61c0-0.36,0.3-0.54,0.89-0.54c0.14,0,0.75,0.04,1.83,0.1c0.63,0.05,1.41,0.08,2.33,0.08
				c0.8,0,2.17-0.06,4.11-0.18c1.4-0.09,2.63-0.13,3.69-0.13c4.02,0,7.04,0.76,9.09,2.27c2.04,1.51,3.06,3.76,3.06,6.75
				C186.72,75.48,184.56,78.52,180.25,80.67z M172.55,80.1h2.97c2.29,0,4.09-0.63,5.41-1.89c1.31-1.26,1.97-2.99,1.97-5.18
				c0-2.54-0.89-4.63-2.68-6.27c-1.78-1.64-4.06-2.46-6.82-2.46c-1.03,0-1.75,0.17-2.14,0.51c-0.39,0.34-0.59,0.96-0.59,1.85
				l0.03,0.87v10.67c0,0.82,0.11,1.34,0.33,1.56C171.24,79.99,171.75,80.1,172.55,80.1z"/>
			<path class="st0" d="M205.89,70.51v19.63c0,2.45,0.15,4.07,0.45,4.86c0.35,0.89,0.78,1.52,1.3,1.89
				c0.51,0.37,1.32,0.63,2.42,0.79c0.87,0.12,1.31,0.33,1.31,0.64c0,0.41-0.27,0.62-0.81,0.62c-0.26,0-0.59-0.03-1-0.09
				c-0.54-0.08-1.47-0.12-2.78-0.12l-3.8-0.06l-3.09,0.18c-0.51,0.05-0.93,0.08-1.26,0.08c-0.47,0-0.71-0.18-0.71-0.54
				c0-0.31,0.27-0.5,0.81-0.59c1.33-0.23,2.18-0.69,2.57-1.38c0.38-0.69,0.58-2.15,0.58-4.37V69.61c0-2.17-0.25-3.63-0.75-4.38
				c-0.5-0.75-1.56-1.26-3.18-1.52c-0.54-0.1-0.82-0.31-0.84-0.61c-0.02-0.38,0.24-0.56,0.76-0.56c0.14,0,0.3,0.01,0.47,0.03
				c1.27,0.16,2.97,0.23,5.08,0.23c1.29,0,2.4-0.03,3.33-0.09l1.75-0.15c0.33-0.02,0.55-0.03,0.65-0.03c0.47,0,0.71,0.16,0.71,0.49
				c0,0.31-0.23,0.54-0.68,0.69l-1.36,0.53C206.53,64.72,205.89,66.81,205.89,70.51z"/>
			<path class="st0" d="M219.48,69.11c0-1.77-0.3-3.06-0.89-3.88c-0.59-0.82-1.58-1.3-2.96-1.44c-0.58-0.05-0.86-0.23-0.86-0.54
				c0-0.34,0.23-0.51,0.68-0.51l2.07,0.1c0.21,0.02,0.82,0.03,1.83,0.03c1.76,0,3.13-0.04,4.11-0.13l2.44-0.24
				c1.05-0.09,2.2-0.13,3.46-0.13c7.16,0,12.53,1.8,16.11,5.39c3.26,3.28,4.9,7.48,4.9,12.6c0,3.3-0.72,6.33-2.15,9.09
				c-1.43,2.76-3.42,4.93-5.97,6.52c-3.21,2.01-6.72,3.01-10.53,3.01c-0.45,0-1.26-0.04-2.41-0.13c-2.34-0.16-4.37-0.24-6.1-0.24
				c-1.87,0-3.49,0.1-4.87,0.29c-0.63,0.09-1.13,0.14-1.49,0.16c-0.61,0.03-0.92-0.16-0.92-0.59c0-0.29,0.24-0.49,0.73-0.59
				c1.19-0.24,1.96-0.68,2.3-1.31c0.35-0.63,0.52-1.91,0.52-3.86V69.11z M223.49,67.03v26.96c0,1.06,0.53,1.8,1.6,2.2
				c0.92,0.35,2.11,0.65,3.54,0.92s2.65,0.39,3.65,0.39c2.98,0,5.67-0.75,8.06-2.25c4.05-2.51,6.07-6.78,6.07-12.81
				c0-3.28-0.63-6.29-1.9-9.05c-1.26-2.75-3-4.92-5.22-6.48c-2.7-1.93-5.99-2.9-9.86-2.9c-2.76,0-4.51,0.3-5.26,0.89
				C223.71,65.23,223.49,65.95,223.49,67.03z"/>
		</g>
	</g>
	<g>
		<path class="st0" d="M67.46,113.58v-7.31h0.92v7.22c0,2.52,1.35,3.97,3.64,3.97s3.64-1.46,3.64-3.97v-7.22h0.92v7.31
			c0,2.92-1.79,4.75-4.56,4.75S67.46,116.5,67.46,113.58z"/>
		<path class="st0" d="M82.73,114v4.16h-0.92v-11.89h4.1c2.43,0,4.08,1.7,4.08,3.85c0,2.22-1.61,3.87-4.27,3.87H82.73z
			 M82.73,107.13v6.02h3.09c2.03,0,3.25-1.34,3.25-3.04c0-1.65-1.2-2.98-3.42-2.98H82.73z"/>
		<path class="st0" d="M95.08,106.28h3.66c3.31,0,6.02,2.5,6.02,5.93s-2.71,5.95-6.02,5.95h-3.66V106.28z M96,107.13v10.19h2.71
			c2.88,0,5.14-2.17,5.14-5.1c0-2.93-2.26-5.08-5.14-5.08H96z"/>
		<path class="st0" d="M116.09,115.02h-5.95l-1.23,3.14h-0.94l4.7-11.89h0.92l4.72,11.89h-0.99L116.09,115.02z M113.13,107.48
			l-2.64,6.68h5.26L113.13,107.48z"/>
		<path class="st0" d="M123.48,118.17v-11.04h-3.87v-0.85h8.66v0.85h-3.87v11.04H123.48z"/>
		<path class="st0" d="M132.87,106.28H140v0.85h-6.21v4.6h5.78v0.85h-5.78v4.74h6.56v0.85h-7.48V106.28z"/>
		<path class="st0" d="M155.65,118.17v-5.29l-4.25-6.59h1.09l3.63,5.76l3.63-5.76h1.08l-4.25,6.56v5.33H155.65z"/>
		<path class="st0" d="M163.6,112.21c0-3.52,2.72-6.07,6.06-6.07s6.06,2.55,6.06,6.07c0,3.52-2.72,6.09-6.06,6.09
			S163.6,115.74,163.6,112.21z M174.79,112.21c0-2.98-2.26-5.19-5.14-5.19c-2.88,0-5.14,2.2-5.14,5.19s2.26,5.22,5.14,5.22
			C172.53,117.44,174.79,115.2,174.79,112.21z"/>
		<path class="st0" d="M180.58,113.58v-7.31h0.92v7.22c0,2.52,1.35,3.97,3.64,3.97s3.64-1.46,3.64-3.97v-7.22h0.92v7.31
			c0,2.92-1.79,4.75-4.56,4.75S180.58,116.5,180.58,113.58z"/>
		<path class="st0" d="M195.85,118.17h-0.92v-11.89h3.9c2.5,0,4.01,1.54,4.01,3.61c0,2-1.6,3.57-3.96,3.57h-1.74l5.9,4.7h-1.37
			l-5.83-4.7V118.17z M195.85,107.13v5.52h2.69c2.27,0,3.38-1.21,3.38-2.74c0-1.56-1.13-2.78-3.3-2.78H195.85z"/>
		<path class="st0" d="M214.36,106.28h3.66c3.31,0,6.02,2.5,6.02,5.93s-2.71,5.95-6.02,5.95h-3.66V106.28z M215.28,107.13v10.19
			h2.71c2.88,0,5.14-2.17,5.14-5.1c0-2.93-2.26-5.08-5.14-5.08H215.28z"/>
		<path class="st0" d="M235.37,115.02h-5.95l-1.23,3.14h-0.94l4.7-11.89h0.92l4.72,11.89h-0.99L235.37,115.02z M232.41,107.48
			l-2.64,6.68h5.26L232.41,107.48z"/>
		<path class="st0" d="M243.06,118.17v-5.29l-4.25-6.59h1.09l3.63,5.76l3.63-5.76h1.08l-4.25,6.56v5.33H243.06z"/>
	</g>
	<g>
		<path class="st0" d="M62.97,14.98c-0.65,0.21-1.05,0.81-1.06,1.45l-10.07,2.61l0.21,0.81l10.07-2.61c0.36,0.63,1.12,0.93,1.84,0.7
			c0.82-0.27,1.26-1.15,0.99-1.97C64.67,15.15,63.78,14.71,62.97,14.98z"/>
		<path class="st0" d="M58.8,6.89L51,15.77l0.63,0.55l7.81-8.89c0.11,0.07,0.21,0.15,0.33,0.21c1.54,0.76,3.41,0.13,4.17-1.41
			s0.13-3.41-1.41-4.17s-3.41-0.13-4.17,1.41C57.79,4.63,58,5.97,58.8,6.89z"/>
		<path class="st0" d="M102.18,128.55c-13.7,6.07-54.91,8.33-75.61-22.11c-12-17.64-9.98-36.15-6.18-48.57
			c2.73-8.92,6.75-16.07,9.19-19.93l-2.32,19.69c-0.79,0.04-1.55,0.47-1.98,1.21C24.6,60,25,61.5,26.16,62.18
			c1.17,0.68,2.67,0.29,3.35-0.88c0.68-1.17,0.29-2.67-0.88-3.35c-0.17-0.1-0.35-0.17-0.53-0.23l2.4-20.39l1.39,11.09
			c-0.24,0.12-0.45,0.31-0.58,0.58c-0.31,0.63-0.05,1.4,0.58,1.71s1.4,0.05,1.71-0.58c0.31-0.63,0.05-1.4-0.58-1.71
			c-0.1-0.05-0.2-0.08-0.3-0.1l-1.33-10.62l6.25,17.8c-0.69,0.39-1.18,1.1-1.24,1.95c-0.09,1.34,0.92,2.5,2.26,2.6
			c1.34,0.09,2.5-0.92,2.6-2.26c0.09-1.34-0.92-2.5-2.26-2.6c-0.19-0.01-0.38,0-0.56,0.03L31.9,36.62l9.44,13.52
			c-0.2,0.24-0.33,0.54-0.35,0.88c-0.05,0.85,0.59,1.58,1.44,1.64c0.85,0.05,1.58-0.59,1.64-1.44c0.05-0.85-0.59-1.58-1.44-1.64
			c-0.21-0.01-0.42,0.02-0.6,0.08l-9.31-13.35l17.23,15.09c-0.44,0.56-0.58,1.32-0.29,2.03c0.43,1.04,1.62,1.54,2.66,1.11
			c1.04-0.43,1.54-1.62,1.11-2.66c-0.43-1.04-1.62-1.54-2.66-1.11c-0.06,0.02-0.11,0.06-0.16,0.09L33.55,35.93l12.92,6.74
			c-0.15,0.48-0.17,1.01,0.01,1.53c0.44,1.28,1.83,1.96,3.1,1.52c1.28-0.44,1.96-1.83,1.52-3.1c-0.44-1.28-1.83-1.96-3.1-1.52
			c-0.47,0.16-0.86,0.46-1.15,0.83l-12.8-6.67l22.49,5.99c-0.09,0.47-0.05,0.98,0.14,1.46c0.54,1.32,2.05,1.95,3.37,1.41
			c1.32-0.54,1.95-2.05,1.41-3.37c-0.54-1.32-2.05-1.95-3.37-1.41c-0.55,0.23-0.98,0.63-1.25,1.11l-23.32-6.21L48.43,34
			c0.02,0.11,0.05,0.21,0.09,0.32c0.37,0.89,1.38,1.32,2.28,0.95c0.89-0.37,1.32-1.38,0.95-2.28c-0.37-0.89-1.38-1.32-2.28-0.95
			c-0.51,0.21-0.86,0.63-1,1.12l-13.94,0.22l17.58-4.59c0.23,0.5,0.61,0.93,1.14,1.19c1.22,0.6,2.69,0.1,3.29-1.12
			c0.6-1.22,0.1-2.69-1.12-3.29c-1.22-0.6-2.69-0.1-3.29,1.12c-0.2,0.41-0.27,0.86-0.24,1.29L31.13,33.4l6.82-15.16
			c0.22,0.02,0.44,0.01,0.66-0.07c0.82-0.27,1.26-1.15,0.99-1.97c-0.27-0.82-1.15-1.26-1.97-0.99c-0.82,0.27-1.26,1.15-0.99,1.97
			c0.1,0.31,0.29,0.56,0.53,0.75l-5.74,12.75l3.26-20.71c0.55-0.04,1.1-0.25,1.54-0.65c1.07-0.96,1.16-2.61,0.2-3.68
			c-0.96-1.07-2.61-1.16-3.68-0.2c-1.07,0.96-1.16,2.61-0.2,3.68c0.36,0.4,0.81,0.66,1.3,0.79l-3.33,21.15l-1.91-24.9
			c0.9-0.19,1.7-0.77,2.14-1.65c0.76-1.54,0.13-3.41-1.41-4.17c-1.54-0.76-3.41-0.13-4.17,1.41s-0.13,3.41,1.41,4.17
			c0.39,0.19,0.79,0.29,1.19,0.32l1.73,22.59l-4.15-14.67c0.23-0.14,0.42-0.35,0.55-0.61c0.35-0.74,0.04-1.62-0.7-1.98
			c-0.74-0.35-1.62-0.04-1.98,0.7c-0.35,0.74-0.04,1.62,0.7,1.98c0.2,0.1,0.41,0.14,0.62,0.14l3.84,13.56l-8.1-17.26
			c0.28-0.2,0.51-0.47,0.67-0.8C21.47,8.8,21.02,7.52,19.95,7c-1.07-0.51-2.36-0.06-2.88,1.01c-0.51,1.07-0.06,2.36,1.01,2.88
			c0.47,0.22,0.98,0.26,1.45,0.14l9.64,20.55L13.64,13c0.54-0.63,0.75-1.52,0.47-2.36C13.68,9.35,12.29,8.65,11,9.07
			s-1.99,1.82-1.56,3.11s1.82,1.99,3.11,1.56c0.16-0.05,0.31-0.12,0.45-0.2l15.19,18.17L13.66,21.69c0.19-0.44,0.23-0.95,0.06-1.44
			c-0.36-1.08-1.52-1.67-2.6-1.31c-1.08,0.36-1.67,1.52-1.31,2.6c0.36,1.08,1.52,1.67,2.6,1.31c0.3-0.1,0.56-0.26,0.77-0.47
			l13.97,9.64L6.13,23.61c0.19-0.84-0.04-1.75-0.69-2.41c-1.02-1.03-2.67-1.04-3.7-0.03c-1.03,1.02-1.04,2.67-0.03,3.7
			c1.02,1.03,2.67,1.04,3.7,0.03c0.16-0.16,0.29-0.33,0.4-0.52l21.17,8.47L9.3,30.21c-0.01-0.1-0.03-0.2-0.07-0.3
			c-0.27-0.82-1.15-1.26-1.97-0.99C6.45,29.19,6,30.08,6.27,30.89c0.27,0.82,1.15,1.26,1.97,0.99c0.43-0.14,0.76-0.46,0.93-0.84
			l18.93,2.83L5.36,36.75c-0.03-0.1-0.05-0.19-0.08-0.28c-0.57-1.4-2.18-2.07-3.58-1.5c-1.4,0.57-2.07,2.18-1.5,3.58
			c0.57,1.4,2.18,2.07,3.58,1.5c1.03-0.42,1.67-1.41,1.7-2.46l21.76-2.75l-13.41,4.88c-0.4-0.46-1.02-0.71-1.67-0.6
			c-0.99,0.16-1.67,1.1-1.5,2.09c0.16,0.99,1.1,1.67,2.09,1.5c0.99-0.16,1.67-1.1,1.5-2.09c-0.01-0.05-0.03-0.1-0.04-0.15
			l13.41-4.88L10.43,48.34c-0.92-0.91-2.38-1.09-3.5-0.35c-1.28,0.85-1.64,2.58-0.79,3.86c0.85,1.28,2.58,1.64,3.86,0.79
			c1.21-0.8,1.58-2.37,0.92-3.62l17.31-12.84L18.16,48.46c-0.51-0.25-1.11-0.31-1.69-0.11c-1.16,0.39-1.79,1.65-1.4,2.81
			c0.39,1.16,1.65,1.79,2.81,1.4c1.16-0.39,1.79-1.65,1.4-2.81c-0.1-0.3-0.26-0.56-0.45-0.77l9.36-11.41
			c-2.5,4-6.42,11.09-9.11,19.87c-3.9,12.72-5.97,31.68,6.34,49.79c13.85,20.37,36.7,26.42,54.76,26.41
			c9.52,0,17.71-1.68,22.55-3.82L102.18,128.55z"/>
		<path class="st0" d="M47.18,19.46l2.68-13.77c0.72,0.09,1.48-0.11,2.07-0.63c1.07-0.96,1.16-2.61,0.2-3.68
			c-0.96-1.07-2.61-1.16-3.68-0.2s-1.16,2.61-0.2,3.68c0.23,0.26,0.51,0.46,0.8,0.6L46.36,19.3L47.18,19.46z"/>
	</g>
</g>
</svg>
